G75*
%MOIN*%
%OFA0B0*%
%FSLAX25Y25*%
%IPPOS*%
%LPD*%
%AMOC8*
5,1,8,0,0,1.08239X$1,22.5*
%
%ADD10C,0.00000*%
D10*
X0004478Y0001500D02*
X0004478Y0052511D01*
X0258478Y0052500D01*
X0258589Y0052411D01*
X0264479Y0046511D01*
X0264479Y0001500D01*
X0004478Y0001500D01*
X0022706Y0018839D02*
X0022708Y0018923D01*
X0022714Y0019006D01*
X0022724Y0019089D01*
X0022738Y0019172D01*
X0022755Y0019254D01*
X0022777Y0019335D01*
X0022802Y0019414D01*
X0022831Y0019493D01*
X0022864Y0019570D01*
X0022900Y0019645D01*
X0022940Y0019719D01*
X0022983Y0019791D01*
X0023030Y0019860D01*
X0023080Y0019927D01*
X0023133Y0019992D01*
X0023189Y0020054D01*
X0023247Y0020114D01*
X0023309Y0020171D01*
X0023373Y0020224D01*
X0023440Y0020275D01*
X0023509Y0020322D01*
X0023580Y0020367D01*
X0023653Y0020407D01*
X0023728Y0020444D01*
X0023805Y0020478D01*
X0023883Y0020508D01*
X0023962Y0020534D01*
X0024043Y0020557D01*
X0024125Y0020575D01*
X0024207Y0020590D01*
X0024290Y0020601D01*
X0024373Y0020608D01*
X0024457Y0020611D01*
X0024541Y0020610D01*
X0024624Y0020605D01*
X0024708Y0020596D01*
X0024790Y0020583D01*
X0024872Y0020567D01*
X0024953Y0020546D01*
X0025034Y0020522D01*
X0025112Y0020494D01*
X0025190Y0020462D01*
X0025266Y0020426D01*
X0025340Y0020387D01*
X0025412Y0020345D01*
X0025482Y0020299D01*
X0025550Y0020250D01*
X0025615Y0020198D01*
X0025678Y0020143D01*
X0025738Y0020085D01*
X0025796Y0020024D01*
X0025850Y0019960D01*
X0025902Y0019894D01*
X0025950Y0019826D01*
X0025995Y0019755D01*
X0026036Y0019682D01*
X0026075Y0019608D01*
X0026109Y0019532D01*
X0026140Y0019454D01*
X0026167Y0019375D01*
X0026191Y0019294D01*
X0026210Y0019213D01*
X0026226Y0019131D01*
X0026238Y0019048D01*
X0026246Y0018964D01*
X0026250Y0018881D01*
X0026250Y0018797D01*
X0026246Y0018714D01*
X0026238Y0018630D01*
X0026226Y0018547D01*
X0026210Y0018465D01*
X0026191Y0018384D01*
X0026167Y0018303D01*
X0026140Y0018224D01*
X0026109Y0018146D01*
X0026075Y0018070D01*
X0026036Y0017996D01*
X0025995Y0017923D01*
X0025950Y0017852D01*
X0025902Y0017784D01*
X0025850Y0017718D01*
X0025796Y0017654D01*
X0025738Y0017593D01*
X0025678Y0017535D01*
X0025615Y0017480D01*
X0025550Y0017428D01*
X0025482Y0017379D01*
X0025412Y0017333D01*
X0025340Y0017291D01*
X0025266Y0017252D01*
X0025190Y0017216D01*
X0025112Y0017184D01*
X0025034Y0017156D01*
X0024953Y0017132D01*
X0024872Y0017111D01*
X0024790Y0017095D01*
X0024708Y0017082D01*
X0024624Y0017073D01*
X0024541Y0017068D01*
X0024457Y0017067D01*
X0024373Y0017070D01*
X0024290Y0017077D01*
X0024207Y0017088D01*
X0024125Y0017103D01*
X0024043Y0017121D01*
X0023962Y0017144D01*
X0023883Y0017170D01*
X0023805Y0017200D01*
X0023728Y0017234D01*
X0023653Y0017271D01*
X0023580Y0017311D01*
X0023509Y0017356D01*
X0023440Y0017403D01*
X0023373Y0017454D01*
X0023309Y0017507D01*
X0023247Y0017564D01*
X0023189Y0017624D01*
X0023133Y0017686D01*
X0023080Y0017751D01*
X0023030Y0017818D01*
X0022983Y0017887D01*
X0022940Y0017959D01*
X0022900Y0018033D01*
X0022864Y0018108D01*
X0022831Y0018185D01*
X0022802Y0018264D01*
X0022777Y0018343D01*
X0022755Y0018424D01*
X0022738Y0018506D01*
X0022724Y0018589D01*
X0022714Y0018672D01*
X0022708Y0018755D01*
X0022706Y0018839D01*
X0022706Y0036161D02*
X0022708Y0036245D01*
X0022714Y0036328D01*
X0022724Y0036411D01*
X0022738Y0036494D01*
X0022755Y0036576D01*
X0022777Y0036657D01*
X0022802Y0036736D01*
X0022831Y0036815D01*
X0022864Y0036892D01*
X0022900Y0036967D01*
X0022940Y0037041D01*
X0022983Y0037113D01*
X0023030Y0037182D01*
X0023080Y0037249D01*
X0023133Y0037314D01*
X0023189Y0037376D01*
X0023247Y0037436D01*
X0023309Y0037493D01*
X0023373Y0037546D01*
X0023440Y0037597D01*
X0023509Y0037644D01*
X0023580Y0037689D01*
X0023653Y0037729D01*
X0023728Y0037766D01*
X0023805Y0037800D01*
X0023883Y0037830D01*
X0023962Y0037856D01*
X0024043Y0037879D01*
X0024125Y0037897D01*
X0024207Y0037912D01*
X0024290Y0037923D01*
X0024373Y0037930D01*
X0024457Y0037933D01*
X0024541Y0037932D01*
X0024624Y0037927D01*
X0024708Y0037918D01*
X0024790Y0037905D01*
X0024872Y0037889D01*
X0024953Y0037868D01*
X0025034Y0037844D01*
X0025112Y0037816D01*
X0025190Y0037784D01*
X0025266Y0037748D01*
X0025340Y0037709D01*
X0025412Y0037667D01*
X0025482Y0037621D01*
X0025550Y0037572D01*
X0025615Y0037520D01*
X0025678Y0037465D01*
X0025738Y0037407D01*
X0025796Y0037346D01*
X0025850Y0037282D01*
X0025902Y0037216D01*
X0025950Y0037148D01*
X0025995Y0037077D01*
X0026036Y0037004D01*
X0026075Y0036930D01*
X0026109Y0036854D01*
X0026140Y0036776D01*
X0026167Y0036697D01*
X0026191Y0036616D01*
X0026210Y0036535D01*
X0026226Y0036453D01*
X0026238Y0036370D01*
X0026246Y0036286D01*
X0026250Y0036203D01*
X0026250Y0036119D01*
X0026246Y0036036D01*
X0026238Y0035952D01*
X0026226Y0035869D01*
X0026210Y0035787D01*
X0026191Y0035706D01*
X0026167Y0035625D01*
X0026140Y0035546D01*
X0026109Y0035468D01*
X0026075Y0035392D01*
X0026036Y0035318D01*
X0025995Y0035245D01*
X0025950Y0035174D01*
X0025902Y0035106D01*
X0025850Y0035040D01*
X0025796Y0034976D01*
X0025738Y0034915D01*
X0025678Y0034857D01*
X0025615Y0034802D01*
X0025550Y0034750D01*
X0025482Y0034701D01*
X0025412Y0034655D01*
X0025340Y0034613D01*
X0025266Y0034574D01*
X0025190Y0034538D01*
X0025112Y0034506D01*
X0025034Y0034478D01*
X0024953Y0034454D01*
X0024872Y0034433D01*
X0024790Y0034417D01*
X0024708Y0034404D01*
X0024624Y0034395D01*
X0024541Y0034390D01*
X0024457Y0034389D01*
X0024373Y0034392D01*
X0024290Y0034399D01*
X0024207Y0034410D01*
X0024125Y0034425D01*
X0024043Y0034443D01*
X0023962Y0034466D01*
X0023883Y0034492D01*
X0023805Y0034522D01*
X0023728Y0034556D01*
X0023653Y0034593D01*
X0023580Y0034633D01*
X0023509Y0034678D01*
X0023440Y0034725D01*
X0023373Y0034776D01*
X0023309Y0034829D01*
X0023247Y0034886D01*
X0023189Y0034946D01*
X0023133Y0035008D01*
X0023080Y0035073D01*
X0023030Y0035140D01*
X0022983Y0035209D01*
X0022940Y0035281D01*
X0022900Y0035355D01*
X0022864Y0035430D01*
X0022831Y0035507D01*
X0022802Y0035586D01*
X0022777Y0035665D01*
X0022755Y0035746D01*
X0022738Y0035828D01*
X0022724Y0035911D01*
X0022714Y0035994D01*
X0022708Y0036077D01*
X0022706Y0036161D01*
M02*
