%
M48
M72
T01C0.02400
T02C0.03543
T03C0.04000
%
T01
X56978Y7500
X105478Y12500
X128978Y15500
X153478Y12500
X184478Y19500
X169478Y20500
X212978Y20500
X224478Y19000
X236978Y8500
X143978Y30500
X113978Y30500
X67478Y39000
X56978Y46500
X103478Y21000
X176478Y42500
X199478Y36000
T02
X24478Y36161
X24478Y18839
T03
X78478Y42500
X88478Y42500
X98478Y42500
X108478Y42500
X118478Y42500
X128478Y42500
X138478Y42500
X148478Y42500
X158478Y42500
X168478Y42500
X184478Y42500
X194478Y42500
X204478Y42500
X214478Y42500
X224478Y42500
X234478Y42500
X244478Y42500
X254478Y42500
X110978Y8600
M30
