G75*
%MOIN*%
%OFA0B0*%
%FSLAX25Y25*%
%IPPOS*%
%LPD*%
%AMOC8*
5,1,8,0,0,1.08239X$1,22.5*
%
%ADD10C,0.00000*%
%ADD11OC8,0.07000*%
%ADD12OC8,0.06000*%
%ADD13C,0.01000*%
%ADD14C,0.04000*%
D10*
X0004478Y0001500D02*
X0004478Y0052511D01*
X0258478Y0052500D01*
X0258589Y0052411D01*
X0264479Y0046511D01*
X0264479Y0001500D01*
X0004478Y0001500D01*
X0022706Y0018839D02*
X0022708Y0018923D01*
X0022714Y0019006D01*
X0022724Y0019089D01*
X0022738Y0019172D01*
X0022755Y0019254D01*
X0022777Y0019335D01*
X0022802Y0019414D01*
X0022831Y0019493D01*
X0022864Y0019570D01*
X0022900Y0019645D01*
X0022940Y0019719D01*
X0022983Y0019791D01*
X0023030Y0019860D01*
X0023080Y0019927D01*
X0023133Y0019992D01*
X0023189Y0020054D01*
X0023247Y0020114D01*
X0023309Y0020171D01*
X0023373Y0020224D01*
X0023440Y0020275D01*
X0023509Y0020322D01*
X0023580Y0020367D01*
X0023653Y0020407D01*
X0023728Y0020444D01*
X0023805Y0020478D01*
X0023883Y0020508D01*
X0023962Y0020534D01*
X0024043Y0020557D01*
X0024125Y0020575D01*
X0024207Y0020590D01*
X0024290Y0020601D01*
X0024373Y0020608D01*
X0024457Y0020611D01*
X0024541Y0020610D01*
X0024624Y0020605D01*
X0024708Y0020596D01*
X0024790Y0020583D01*
X0024872Y0020567D01*
X0024953Y0020546D01*
X0025034Y0020522D01*
X0025112Y0020494D01*
X0025190Y0020462D01*
X0025266Y0020426D01*
X0025340Y0020387D01*
X0025412Y0020345D01*
X0025482Y0020299D01*
X0025550Y0020250D01*
X0025615Y0020198D01*
X0025678Y0020143D01*
X0025738Y0020085D01*
X0025796Y0020024D01*
X0025850Y0019960D01*
X0025902Y0019894D01*
X0025950Y0019826D01*
X0025995Y0019755D01*
X0026036Y0019682D01*
X0026075Y0019608D01*
X0026109Y0019532D01*
X0026140Y0019454D01*
X0026167Y0019375D01*
X0026191Y0019294D01*
X0026210Y0019213D01*
X0026226Y0019131D01*
X0026238Y0019048D01*
X0026246Y0018964D01*
X0026250Y0018881D01*
X0026250Y0018797D01*
X0026246Y0018714D01*
X0026238Y0018630D01*
X0026226Y0018547D01*
X0026210Y0018465D01*
X0026191Y0018384D01*
X0026167Y0018303D01*
X0026140Y0018224D01*
X0026109Y0018146D01*
X0026075Y0018070D01*
X0026036Y0017996D01*
X0025995Y0017923D01*
X0025950Y0017852D01*
X0025902Y0017784D01*
X0025850Y0017718D01*
X0025796Y0017654D01*
X0025738Y0017593D01*
X0025678Y0017535D01*
X0025615Y0017480D01*
X0025550Y0017428D01*
X0025482Y0017379D01*
X0025412Y0017333D01*
X0025340Y0017291D01*
X0025266Y0017252D01*
X0025190Y0017216D01*
X0025112Y0017184D01*
X0025034Y0017156D01*
X0024953Y0017132D01*
X0024872Y0017111D01*
X0024790Y0017095D01*
X0024708Y0017082D01*
X0024624Y0017073D01*
X0024541Y0017068D01*
X0024457Y0017067D01*
X0024373Y0017070D01*
X0024290Y0017077D01*
X0024207Y0017088D01*
X0024125Y0017103D01*
X0024043Y0017121D01*
X0023962Y0017144D01*
X0023883Y0017170D01*
X0023805Y0017200D01*
X0023728Y0017234D01*
X0023653Y0017271D01*
X0023580Y0017311D01*
X0023509Y0017356D01*
X0023440Y0017403D01*
X0023373Y0017454D01*
X0023309Y0017507D01*
X0023247Y0017564D01*
X0023189Y0017624D01*
X0023133Y0017686D01*
X0023080Y0017751D01*
X0023030Y0017818D01*
X0022983Y0017887D01*
X0022940Y0017959D01*
X0022900Y0018033D01*
X0022864Y0018108D01*
X0022831Y0018185D01*
X0022802Y0018264D01*
X0022777Y0018343D01*
X0022755Y0018424D01*
X0022738Y0018506D01*
X0022724Y0018589D01*
X0022714Y0018672D01*
X0022708Y0018755D01*
X0022706Y0018839D01*
X0022706Y0036161D02*
X0022708Y0036245D01*
X0022714Y0036328D01*
X0022724Y0036411D01*
X0022738Y0036494D01*
X0022755Y0036576D01*
X0022777Y0036657D01*
X0022802Y0036736D01*
X0022831Y0036815D01*
X0022864Y0036892D01*
X0022900Y0036967D01*
X0022940Y0037041D01*
X0022983Y0037113D01*
X0023030Y0037182D01*
X0023080Y0037249D01*
X0023133Y0037314D01*
X0023189Y0037376D01*
X0023247Y0037436D01*
X0023309Y0037493D01*
X0023373Y0037546D01*
X0023440Y0037597D01*
X0023509Y0037644D01*
X0023580Y0037689D01*
X0023653Y0037729D01*
X0023728Y0037766D01*
X0023805Y0037800D01*
X0023883Y0037830D01*
X0023962Y0037856D01*
X0024043Y0037879D01*
X0024125Y0037897D01*
X0024207Y0037912D01*
X0024290Y0037923D01*
X0024373Y0037930D01*
X0024457Y0037933D01*
X0024541Y0037932D01*
X0024624Y0037927D01*
X0024708Y0037918D01*
X0024790Y0037905D01*
X0024872Y0037889D01*
X0024953Y0037868D01*
X0025034Y0037844D01*
X0025112Y0037816D01*
X0025190Y0037784D01*
X0025266Y0037748D01*
X0025340Y0037709D01*
X0025412Y0037667D01*
X0025482Y0037621D01*
X0025550Y0037572D01*
X0025615Y0037520D01*
X0025678Y0037465D01*
X0025738Y0037407D01*
X0025796Y0037346D01*
X0025850Y0037282D01*
X0025902Y0037216D01*
X0025950Y0037148D01*
X0025995Y0037077D01*
X0026036Y0037004D01*
X0026075Y0036930D01*
X0026109Y0036854D01*
X0026140Y0036776D01*
X0026167Y0036697D01*
X0026191Y0036616D01*
X0026210Y0036535D01*
X0026226Y0036453D01*
X0026238Y0036370D01*
X0026246Y0036286D01*
X0026250Y0036203D01*
X0026250Y0036119D01*
X0026246Y0036036D01*
X0026238Y0035952D01*
X0026226Y0035869D01*
X0026210Y0035787D01*
X0026191Y0035706D01*
X0026167Y0035625D01*
X0026140Y0035546D01*
X0026109Y0035468D01*
X0026075Y0035392D01*
X0026036Y0035318D01*
X0025995Y0035245D01*
X0025950Y0035174D01*
X0025902Y0035106D01*
X0025850Y0035040D01*
X0025796Y0034976D01*
X0025738Y0034915D01*
X0025678Y0034857D01*
X0025615Y0034802D01*
X0025550Y0034750D01*
X0025482Y0034701D01*
X0025412Y0034655D01*
X0025340Y0034613D01*
X0025266Y0034574D01*
X0025190Y0034538D01*
X0025112Y0034506D01*
X0025034Y0034478D01*
X0024953Y0034454D01*
X0024872Y0034433D01*
X0024790Y0034417D01*
X0024708Y0034404D01*
X0024624Y0034395D01*
X0024541Y0034390D01*
X0024457Y0034389D01*
X0024373Y0034392D01*
X0024290Y0034399D01*
X0024207Y0034410D01*
X0024125Y0034425D01*
X0024043Y0034443D01*
X0023962Y0034466D01*
X0023883Y0034492D01*
X0023805Y0034522D01*
X0023728Y0034556D01*
X0023653Y0034593D01*
X0023580Y0034633D01*
X0023509Y0034678D01*
X0023440Y0034725D01*
X0023373Y0034776D01*
X0023309Y0034829D01*
X0023247Y0034886D01*
X0023189Y0034946D01*
X0023133Y0035008D01*
X0023080Y0035073D01*
X0023030Y0035140D01*
X0022983Y0035209D01*
X0022940Y0035281D01*
X0022900Y0035355D01*
X0022864Y0035430D01*
X0022831Y0035507D01*
X0022802Y0035586D01*
X0022777Y0035665D01*
X0022755Y0035746D01*
X0022738Y0035828D01*
X0022724Y0035911D01*
X0022714Y0035994D01*
X0022708Y0036077D01*
X0022706Y0036161D01*
D11*
X0078478Y0042500D03*
X0088478Y0042500D03*
X0098478Y0042500D03*
X0108478Y0042500D03*
X0118478Y0042500D03*
X0128478Y0042500D03*
X0138478Y0042500D03*
X0148478Y0042500D03*
X0158478Y0042500D03*
X0168478Y0042500D03*
X0184478Y0042500D03*
X0194478Y0042500D03*
X0204478Y0042500D03*
X0214478Y0042500D03*
X0224478Y0042500D03*
X0234478Y0042500D03*
X0244478Y0042500D03*
X0254478Y0042500D03*
D12*
X0110978Y0008600D03*
D13*
X0106678Y0008490D02*
X0008978Y0008490D01*
X0008978Y0009488D02*
X0106678Y0009488D01*
X0106678Y0010381D02*
X0106678Y0006819D01*
X0107497Y0006000D01*
X0008978Y0006000D01*
X0008978Y0048010D01*
X0256634Y0048000D01*
X0259979Y0044649D01*
X0259979Y0006000D01*
X0114459Y0006000D01*
X0115278Y0006819D01*
X0115278Y0010381D01*
X0112759Y0012900D01*
X0109197Y0012900D01*
X0106678Y0010381D01*
X0106784Y0010487D02*
X0008978Y0010487D01*
X0008978Y0011485D02*
X0107782Y0011485D01*
X0108781Y0012484D02*
X0008978Y0012484D01*
X0008978Y0013482D02*
X0021021Y0013482D01*
X0020926Y0013522D02*
X0023231Y0012567D01*
X0025726Y0012567D01*
X0028031Y0013522D01*
X0029795Y0015286D01*
X0030750Y0017591D01*
X0030750Y0020086D01*
X0029795Y0022391D01*
X0028031Y0024155D01*
X0025726Y0025110D01*
X0023231Y0025110D01*
X0020926Y0024155D01*
X0019161Y0022391D01*
X0018207Y0020086D01*
X0018207Y0017591D01*
X0019161Y0015286D01*
X0020926Y0013522D01*
X0019967Y0014481D02*
X0008978Y0014481D01*
X0008978Y0015479D02*
X0019081Y0015479D01*
X0018668Y0016478D02*
X0008978Y0016478D01*
X0008978Y0017476D02*
X0018254Y0017476D01*
X0018207Y0018475D02*
X0008978Y0018475D01*
X0008978Y0019473D02*
X0018207Y0019473D01*
X0018366Y0020472D02*
X0008978Y0020472D01*
X0008978Y0021470D02*
X0018780Y0021470D01*
X0019239Y0022469D02*
X0008978Y0022469D01*
X0008978Y0023467D02*
X0020238Y0023467D01*
X0021675Y0024466D02*
X0008978Y0024466D01*
X0008978Y0025464D02*
X0127178Y0025464D01*
X0127178Y0024466D02*
X0027282Y0024466D01*
X0028719Y0023467D02*
X0127178Y0023467D01*
X0127178Y0022469D02*
X0029718Y0022469D01*
X0030177Y0021470D02*
X0127178Y0021470D01*
X0127178Y0020472D02*
X0030590Y0020472D01*
X0030750Y0019473D02*
X0127178Y0019473D01*
X0127178Y0018475D02*
X0030750Y0018475D01*
X0030702Y0017476D02*
X0126288Y0017476D01*
X0126181Y0017369D02*
X0125678Y0016156D01*
X0125678Y0014844D01*
X0126181Y0013631D01*
X0127109Y0012702D01*
X0128322Y0012200D01*
X0129635Y0012200D01*
X0130848Y0012702D01*
X0131776Y0013631D01*
X0132278Y0014844D01*
X0132278Y0016156D01*
X0131776Y0017369D01*
X0130848Y0018298D01*
X0130778Y0018326D01*
X0130778Y0031246D01*
X0126278Y0035746D01*
X0125224Y0036800D01*
X0077324Y0036800D01*
X0074378Y0039746D01*
X0073324Y0040800D01*
X0070305Y0040800D01*
X0070276Y0040869D01*
X0069348Y0041798D01*
X0068135Y0042300D01*
X0066822Y0042300D01*
X0065609Y0041798D01*
X0064681Y0040869D01*
X0064178Y0039656D01*
X0064178Y0038344D01*
X0064681Y0037131D01*
X0065609Y0036202D01*
X0066822Y0035700D01*
X0068135Y0035700D01*
X0069348Y0036202D01*
X0070276Y0037131D01*
X0070305Y0037200D01*
X0071833Y0037200D01*
X0075833Y0033200D01*
X0123733Y0033200D01*
X0127178Y0029754D01*
X0127178Y0018326D01*
X0127109Y0018298D01*
X0126181Y0017369D01*
X0125811Y0016478D02*
X0030289Y0016478D01*
X0029875Y0015479D02*
X0125678Y0015479D01*
X0128978Y0015500D02*
X0128978Y0030500D01*
X0124478Y0035000D01*
X0076578Y0035000D01*
X0072578Y0039000D01*
X0067478Y0039000D01*
X0064178Y0039443D02*
X0029907Y0039443D01*
X0029795Y0039714D02*
X0028031Y0041478D01*
X0025726Y0042433D01*
X0023231Y0042433D01*
X0020926Y0041478D01*
X0019161Y0039714D01*
X0018207Y0037409D01*
X0018207Y0034914D01*
X0019161Y0032609D01*
X0020926Y0030845D01*
X0023231Y0029890D01*
X0025726Y0029890D01*
X0028031Y0030845D01*
X0029795Y0032609D01*
X0030750Y0034914D01*
X0030750Y0037409D01*
X0029795Y0039714D01*
X0029067Y0040442D02*
X0064504Y0040442D01*
X0065252Y0041440D02*
X0028069Y0041440D01*
X0020888Y0041440D02*
X0008978Y0041440D01*
X0008978Y0040442D02*
X0019889Y0040442D01*
X0019049Y0039443D02*
X0008978Y0039443D01*
X0008978Y0038445D02*
X0018636Y0038445D01*
X0018222Y0037446D02*
X0008978Y0037446D01*
X0008978Y0036448D02*
X0018207Y0036448D01*
X0018207Y0035449D02*
X0008978Y0035449D01*
X0008978Y0034451D02*
X0018398Y0034451D01*
X0018812Y0033452D02*
X0008978Y0033452D01*
X0008978Y0032454D02*
X0019316Y0032454D01*
X0020315Y0031455D02*
X0008978Y0031455D01*
X0008978Y0030457D02*
X0021862Y0030457D01*
X0027095Y0030457D02*
X0126476Y0030457D01*
X0127178Y0029458D02*
X0008978Y0029458D01*
X0008978Y0028460D02*
X0127178Y0028460D01*
X0127178Y0027461D02*
X0008978Y0027461D01*
X0008978Y0026463D02*
X0127178Y0026463D01*
X0130778Y0026463D02*
X0182678Y0026463D01*
X0182678Y0027461D02*
X0130778Y0027461D01*
X0130778Y0028460D02*
X0182678Y0028460D01*
X0182678Y0029458D02*
X0130778Y0029458D01*
X0130778Y0030457D02*
X0182678Y0030457D01*
X0182678Y0031455D02*
X0130569Y0031455D01*
X0129570Y0032454D02*
X0182678Y0032454D01*
X0182678Y0033452D02*
X0128572Y0033452D01*
X0127573Y0034451D02*
X0182678Y0034451D01*
X0182678Y0035449D02*
X0126575Y0035449D01*
X0125576Y0036448D02*
X0182678Y0036448D01*
X0182678Y0037446D02*
X0076678Y0037446D01*
X0076490Y0037700D02*
X0080467Y0037700D01*
X0083278Y0040512D01*
X0083278Y0044488D01*
X0080467Y0047300D01*
X0076490Y0047300D01*
X0073678Y0044488D01*
X0073678Y0040512D01*
X0076490Y0037700D01*
X0075745Y0038445D02*
X0075679Y0038445D01*
X0074747Y0039443D02*
X0074680Y0039443D01*
X0073748Y0040442D02*
X0073682Y0040442D01*
X0073678Y0041440D02*
X0069705Y0041440D01*
X0073678Y0042439D02*
X0008978Y0042439D01*
X0008978Y0043437D02*
X0073678Y0043437D01*
X0073678Y0044436D02*
X0008978Y0044436D01*
X0008978Y0045434D02*
X0074625Y0045434D01*
X0075623Y0046433D02*
X0008978Y0046433D01*
X0008978Y0047432D02*
X0106339Y0047432D01*
X0106407Y0047500D02*
X0103478Y0044571D01*
X0103478Y0043000D01*
X0107978Y0043000D01*
X0107978Y0042000D01*
X0103478Y0042000D01*
X0103478Y0040429D01*
X0106407Y0037500D01*
X0107978Y0037500D01*
X0107978Y0042000D01*
X0108978Y0042000D01*
X0108978Y0037500D01*
X0110549Y0037500D01*
X0113478Y0040429D01*
X0113478Y0042000D01*
X0108978Y0042000D01*
X0108978Y0043000D01*
X0107978Y0043000D01*
X0107978Y0047500D01*
X0106407Y0047500D01*
X0107978Y0047432D02*
X0108978Y0047432D01*
X0108978Y0047500D02*
X0108978Y0043000D01*
X0113478Y0043000D01*
X0113478Y0044571D01*
X0110549Y0047500D01*
X0108978Y0047500D01*
X0110618Y0047432D02*
X0257201Y0047432D01*
X0256467Y0047300D02*
X0252490Y0047300D01*
X0249678Y0044488D01*
X0249678Y0040512D01*
X0252490Y0037700D01*
X0256467Y0037700D01*
X0259278Y0040512D01*
X0259278Y0044488D01*
X0256467Y0047300D01*
X0257334Y0046433D02*
X0258198Y0046433D01*
X0258332Y0045434D02*
X0259195Y0045434D01*
X0259278Y0044436D02*
X0259979Y0044436D01*
X0259979Y0043437D02*
X0259278Y0043437D01*
X0259278Y0042439D02*
X0259979Y0042439D01*
X0259979Y0041440D02*
X0259278Y0041440D01*
X0259209Y0040442D02*
X0259979Y0040442D01*
X0259979Y0039443D02*
X0258210Y0039443D01*
X0257211Y0038445D02*
X0259979Y0038445D01*
X0259979Y0037446D02*
X0226278Y0037446D01*
X0226278Y0037700D02*
X0226467Y0037700D01*
X0229278Y0040512D01*
X0229278Y0044488D01*
X0226467Y0047300D01*
X0222490Y0047300D01*
X0219678Y0044488D01*
X0219678Y0040512D01*
X0222490Y0037700D01*
X0222678Y0037700D01*
X0222678Y0021826D01*
X0222609Y0021798D01*
X0221681Y0020869D01*
X0221178Y0019656D01*
X0221178Y0018344D01*
X0221681Y0017131D01*
X0222609Y0016202D01*
X0223822Y0015700D01*
X0225135Y0015700D01*
X0226348Y0016202D01*
X0227276Y0017131D01*
X0227778Y0018344D01*
X0227778Y0019656D01*
X0227276Y0020869D01*
X0226348Y0021798D01*
X0226278Y0021826D01*
X0226278Y0037700D01*
X0227211Y0038445D02*
X0231745Y0038445D01*
X0232490Y0037700D02*
X0236467Y0037700D01*
X0239278Y0040512D01*
X0239278Y0044488D01*
X0236467Y0047300D01*
X0232490Y0047300D01*
X0229678Y0044488D01*
X0229678Y0040512D01*
X0232490Y0037700D01*
X0237211Y0038445D02*
X0241745Y0038445D01*
X0242490Y0037700D02*
X0246467Y0037700D01*
X0249278Y0040512D01*
X0249278Y0044488D01*
X0246467Y0047300D01*
X0242490Y0047300D01*
X0239678Y0044488D01*
X0239678Y0040512D01*
X0242490Y0037700D01*
X0247211Y0038445D02*
X0251745Y0038445D01*
X0250747Y0039443D02*
X0248210Y0039443D01*
X0249209Y0040442D02*
X0249748Y0040442D01*
X0249678Y0041440D02*
X0249278Y0041440D01*
X0249278Y0042439D02*
X0249678Y0042439D01*
X0249678Y0043437D02*
X0249278Y0043437D01*
X0249278Y0044436D02*
X0249678Y0044436D01*
X0250625Y0045434D02*
X0248332Y0045434D01*
X0247334Y0046433D02*
X0251623Y0046433D01*
X0241623Y0046433D02*
X0237334Y0046433D01*
X0238332Y0045434D02*
X0240625Y0045434D01*
X0239678Y0044436D02*
X0239278Y0044436D01*
X0239278Y0043437D02*
X0239678Y0043437D01*
X0239678Y0042439D02*
X0239278Y0042439D01*
X0239278Y0041440D02*
X0239678Y0041440D01*
X0239748Y0040442D02*
X0239209Y0040442D01*
X0238210Y0039443D02*
X0240747Y0039443D01*
X0230747Y0039443D02*
X0228210Y0039443D01*
X0229209Y0040442D02*
X0229748Y0040442D01*
X0229678Y0041440D02*
X0229278Y0041440D01*
X0229278Y0042439D02*
X0229678Y0042439D01*
X0229678Y0043437D02*
X0229278Y0043437D01*
X0229278Y0044436D02*
X0229678Y0044436D01*
X0230625Y0045434D02*
X0228332Y0045434D01*
X0227334Y0046433D02*
X0231623Y0046433D01*
X0221623Y0046433D02*
X0217334Y0046433D01*
X0218332Y0045434D02*
X0220625Y0045434D01*
X0219678Y0044436D02*
X0219278Y0044436D01*
X0219278Y0044488D02*
X0216467Y0047300D01*
X0212490Y0047300D01*
X0209678Y0044488D01*
X0209678Y0040512D01*
X0212490Y0037700D01*
X0216467Y0037700D01*
X0219278Y0040512D01*
X0219278Y0044488D01*
X0219278Y0043437D02*
X0219678Y0043437D01*
X0219678Y0042439D02*
X0219278Y0042439D01*
X0219278Y0041440D02*
X0219678Y0041440D01*
X0219748Y0040442D02*
X0219209Y0040442D01*
X0218210Y0039443D02*
X0220747Y0039443D01*
X0221745Y0038445D02*
X0217211Y0038445D01*
X0211745Y0038445D02*
X0207211Y0038445D01*
X0206467Y0037700D02*
X0202490Y0037700D01*
X0199678Y0040512D01*
X0199678Y0044488D01*
X0202490Y0047300D01*
X0206467Y0047300D01*
X0209278Y0044488D01*
X0209278Y0040512D01*
X0206467Y0037700D01*
X0201745Y0038445D02*
X0197211Y0038445D01*
X0196467Y0037700D02*
X0192490Y0037700D01*
X0189678Y0040512D01*
X0189678Y0044488D01*
X0192490Y0047300D01*
X0196467Y0047300D01*
X0199278Y0044488D01*
X0199278Y0040512D01*
X0196467Y0037700D01*
X0191745Y0038445D02*
X0187211Y0038445D01*
X0186467Y0037700D02*
X0189278Y0040512D01*
X0189278Y0044488D01*
X0186467Y0047300D01*
X0182490Y0047300D01*
X0179678Y0044488D01*
X0179678Y0040512D01*
X0182490Y0037700D01*
X0182678Y0037700D01*
X0182678Y0022326D01*
X0182609Y0022298D01*
X0181681Y0021369D01*
X0181178Y0020156D01*
X0181178Y0018844D01*
X0181681Y0017631D01*
X0182609Y0016702D01*
X0183822Y0016200D01*
X0185135Y0016200D01*
X0186348Y0016702D01*
X0187276Y0017631D01*
X0187778Y0018844D01*
X0187778Y0020156D01*
X0187276Y0021369D01*
X0186348Y0022298D01*
X0186278Y0022326D01*
X0186278Y0037700D01*
X0186467Y0037700D01*
X0186278Y0037446D02*
X0222678Y0037446D01*
X0222678Y0036448D02*
X0186278Y0036448D01*
X0186278Y0035449D02*
X0222678Y0035449D01*
X0222678Y0034451D02*
X0186278Y0034451D01*
X0186278Y0033452D02*
X0222678Y0033452D01*
X0222678Y0032454D02*
X0186278Y0032454D01*
X0186278Y0031455D02*
X0222678Y0031455D01*
X0222678Y0030457D02*
X0186278Y0030457D01*
X0186278Y0029458D02*
X0222678Y0029458D01*
X0222678Y0028460D02*
X0186278Y0028460D01*
X0186278Y0027461D02*
X0222678Y0027461D01*
X0222678Y0026463D02*
X0186278Y0026463D01*
X0186278Y0025464D02*
X0222678Y0025464D01*
X0222678Y0024466D02*
X0186278Y0024466D01*
X0186278Y0023467D02*
X0222678Y0023467D01*
X0222678Y0022469D02*
X0186278Y0022469D01*
X0187175Y0021470D02*
X0222282Y0021470D01*
X0221516Y0020472D02*
X0187648Y0020472D01*
X0187778Y0019473D02*
X0221178Y0019473D01*
X0224478Y0019000D02*
X0224478Y0042500D01*
X0210747Y0039443D02*
X0208210Y0039443D01*
X0209209Y0040442D02*
X0209748Y0040442D01*
X0209678Y0041440D02*
X0209278Y0041440D01*
X0209278Y0042439D02*
X0209678Y0042439D01*
X0209678Y0043437D02*
X0209278Y0043437D01*
X0209278Y0044436D02*
X0209678Y0044436D01*
X0210625Y0045434D02*
X0208332Y0045434D01*
X0207334Y0046433D02*
X0211623Y0046433D01*
X0201623Y0046433D02*
X0197334Y0046433D01*
X0198332Y0045434D02*
X0200625Y0045434D01*
X0199678Y0044436D02*
X0199278Y0044436D01*
X0199278Y0043437D02*
X0199678Y0043437D01*
X0199678Y0042439D02*
X0199278Y0042439D01*
X0199278Y0041440D02*
X0199678Y0041440D01*
X0199748Y0040442D02*
X0199209Y0040442D01*
X0198210Y0039443D02*
X0200747Y0039443D01*
X0190747Y0039443D02*
X0188210Y0039443D01*
X0189209Y0040442D02*
X0189748Y0040442D01*
X0189678Y0041440D02*
X0189278Y0041440D01*
X0189278Y0042439D02*
X0189678Y0042439D01*
X0189678Y0043437D02*
X0189278Y0043437D01*
X0189278Y0044436D02*
X0189678Y0044436D01*
X0190625Y0045434D02*
X0188332Y0045434D01*
X0187334Y0046433D02*
X0191623Y0046433D01*
X0181623Y0046433D02*
X0171334Y0046433D01*
X0172332Y0045434D02*
X0180625Y0045434D01*
X0179678Y0044436D02*
X0173278Y0044436D01*
X0173278Y0044488D02*
X0170467Y0047300D01*
X0166490Y0047300D01*
X0163678Y0044488D01*
X0163678Y0040512D01*
X0166490Y0037700D01*
X0170467Y0037700D01*
X0173278Y0040512D01*
X0173278Y0044488D01*
X0173278Y0043437D02*
X0179678Y0043437D01*
X0179678Y0042439D02*
X0173278Y0042439D01*
X0173278Y0041440D02*
X0179678Y0041440D01*
X0179748Y0040442D02*
X0173209Y0040442D01*
X0172210Y0039443D02*
X0180747Y0039443D01*
X0181745Y0038445D02*
X0171211Y0038445D01*
X0165745Y0038445D02*
X0161211Y0038445D01*
X0160467Y0037700D02*
X0156490Y0037700D01*
X0153678Y0040512D01*
X0153678Y0044488D01*
X0156490Y0047300D01*
X0160467Y0047300D01*
X0163278Y0044488D01*
X0163278Y0040512D01*
X0160467Y0037700D01*
X0155745Y0038445D02*
X0151211Y0038445D01*
X0150467Y0037700D02*
X0146490Y0037700D01*
X0143678Y0040512D01*
X0143678Y0044488D01*
X0146490Y0047300D01*
X0150467Y0047300D01*
X0153278Y0044488D01*
X0153278Y0040512D01*
X0150467Y0037700D01*
X0145745Y0038445D02*
X0141211Y0038445D01*
X0140467Y0037700D02*
X0136490Y0037700D01*
X0133678Y0040512D01*
X0133678Y0044488D01*
X0136490Y0047300D01*
X0140467Y0047300D01*
X0143278Y0044488D01*
X0143278Y0040512D01*
X0140467Y0037700D01*
X0135745Y0038445D02*
X0131211Y0038445D01*
X0130467Y0037700D02*
X0126490Y0037700D01*
X0123678Y0040512D01*
X0123678Y0044488D01*
X0126490Y0047300D01*
X0130467Y0047300D01*
X0133278Y0044488D01*
X0133278Y0040512D01*
X0130467Y0037700D01*
X0125745Y0038445D02*
X0121211Y0038445D01*
X0120467Y0037700D02*
X0116490Y0037700D01*
X0113678Y0040512D01*
X0113678Y0044488D01*
X0116490Y0047300D01*
X0120467Y0047300D01*
X0123278Y0044488D01*
X0123278Y0040512D01*
X0120467Y0037700D01*
X0115745Y0038445D02*
X0111494Y0038445D01*
X0108978Y0038445D02*
X0107978Y0038445D01*
X0105462Y0038445D02*
X0101211Y0038445D01*
X0100467Y0037700D02*
X0096490Y0037700D01*
X0093678Y0040512D01*
X0093678Y0044488D01*
X0096490Y0047300D01*
X0100467Y0047300D01*
X0103278Y0044488D01*
X0103278Y0040512D01*
X0100467Y0037700D01*
X0095745Y0038445D02*
X0091211Y0038445D01*
X0090467Y0037700D02*
X0086490Y0037700D01*
X0083678Y0040512D01*
X0083678Y0044488D01*
X0086490Y0047300D01*
X0090467Y0047300D01*
X0093278Y0044488D01*
X0093278Y0040512D01*
X0090467Y0037700D01*
X0085745Y0038445D02*
X0081211Y0038445D01*
X0082210Y0039443D02*
X0084747Y0039443D01*
X0083748Y0040442D02*
X0083209Y0040442D01*
X0083278Y0041440D02*
X0083678Y0041440D01*
X0083678Y0042439D02*
X0083278Y0042439D01*
X0083278Y0043437D02*
X0083678Y0043437D01*
X0083678Y0044436D02*
X0083278Y0044436D01*
X0082332Y0045434D02*
X0084625Y0045434D01*
X0085623Y0046433D02*
X0081334Y0046433D01*
X0091334Y0046433D02*
X0095623Y0046433D01*
X0094625Y0045434D02*
X0092332Y0045434D01*
X0093278Y0044436D02*
X0093678Y0044436D01*
X0093678Y0043437D02*
X0093278Y0043437D01*
X0093278Y0042439D02*
X0093678Y0042439D01*
X0093678Y0041440D02*
X0093278Y0041440D01*
X0093209Y0040442D02*
X0093748Y0040442D01*
X0094747Y0039443D02*
X0092210Y0039443D01*
X0102210Y0039443D02*
X0104464Y0039443D01*
X0103478Y0040442D02*
X0103209Y0040442D01*
X0103278Y0041440D02*
X0103478Y0041440D01*
X0103278Y0042439D02*
X0107978Y0042439D01*
X0108978Y0042439D02*
X0113678Y0042439D01*
X0113678Y0043437D02*
X0113478Y0043437D01*
X0113478Y0044436D02*
X0113678Y0044436D01*
X0114625Y0045434D02*
X0112615Y0045434D01*
X0111616Y0046433D02*
X0115623Y0046433D01*
X0121334Y0046433D02*
X0125623Y0046433D01*
X0124625Y0045434D02*
X0122332Y0045434D01*
X0123278Y0044436D02*
X0123678Y0044436D01*
X0123678Y0043437D02*
X0123278Y0043437D01*
X0123278Y0042439D02*
X0123678Y0042439D01*
X0123678Y0041440D02*
X0123278Y0041440D01*
X0123209Y0040442D02*
X0123748Y0040442D01*
X0124747Y0039443D02*
X0122210Y0039443D01*
X0114747Y0039443D02*
X0112493Y0039443D01*
X0113478Y0040442D02*
X0113748Y0040442D01*
X0113678Y0041440D02*
X0113478Y0041440D01*
X0108978Y0041440D02*
X0107978Y0041440D01*
X0107978Y0040442D02*
X0108978Y0040442D01*
X0108978Y0039443D02*
X0107978Y0039443D01*
X0107978Y0043437D02*
X0108978Y0043437D01*
X0108978Y0044436D02*
X0107978Y0044436D01*
X0107978Y0045434D02*
X0108978Y0045434D01*
X0108978Y0046433D02*
X0107978Y0046433D01*
X0105340Y0046433D02*
X0101334Y0046433D01*
X0102332Y0045434D02*
X0104342Y0045434D01*
X0103478Y0044436D02*
X0103278Y0044436D01*
X0103278Y0043437D02*
X0103478Y0043437D01*
X0131334Y0046433D02*
X0135623Y0046433D01*
X0134625Y0045434D02*
X0132332Y0045434D01*
X0133278Y0044436D02*
X0133678Y0044436D01*
X0133678Y0043437D02*
X0133278Y0043437D01*
X0133278Y0042439D02*
X0133678Y0042439D01*
X0133678Y0041440D02*
X0133278Y0041440D01*
X0133209Y0040442D02*
X0133748Y0040442D01*
X0134747Y0039443D02*
X0132210Y0039443D01*
X0142210Y0039443D02*
X0144747Y0039443D01*
X0143748Y0040442D02*
X0143209Y0040442D01*
X0143278Y0041440D02*
X0143678Y0041440D01*
X0143678Y0042439D02*
X0143278Y0042439D01*
X0143278Y0043437D02*
X0143678Y0043437D01*
X0143678Y0044436D02*
X0143278Y0044436D01*
X0142332Y0045434D02*
X0144625Y0045434D01*
X0145623Y0046433D02*
X0141334Y0046433D01*
X0151334Y0046433D02*
X0155623Y0046433D01*
X0154625Y0045434D02*
X0152332Y0045434D01*
X0153278Y0044436D02*
X0153678Y0044436D01*
X0153678Y0043437D02*
X0153278Y0043437D01*
X0153278Y0042439D02*
X0153678Y0042439D01*
X0153678Y0041440D02*
X0153278Y0041440D01*
X0153209Y0040442D02*
X0153748Y0040442D01*
X0154747Y0039443D02*
X0152210Y0039443D01*
X0162210Y0039443D02*
X0164747Y0039443D01*
X0163748Y0040442D02*
X0163209Y0040442D01*
X0163278Y0041440D02*
X0163678Y0041440D01*
X0163678Y0042439D02*
X0163278Y0042439D01*
X0163278Y0043437D02*
X0163678Y0043437D01*
X0163678Y0044436D02*
X0163278Y0044436D01*
X0162332Y0045434D02*
X0164625Y0045434D01*
X0165623Y0046433D02*
X0161334Y0046433D01*
X0184478Y0042500D02*
X0184478Y0019500D01*
X0181178Y0019473D02*
X0130778Y0019473D01*
X0130778Y0020472D02*
X0181309Y0020472D01*
X0181782Y0021470D02*
X0130778Y0021470D01*
X0130778Y0022469D02*
X0182678Y0022469D01*
X0182678Y0023467D02*
X0130778Y0023467D01*
X0130778Y0024466D02*
X0182678Y0024466D01*
X0182678Y0025464D02*
X0130778Y0025464D01*
X0125477Y0031455D02*
X0028642Y0031455D01*
X0029640Y0032454D02*
X0124479Y0032454D01*
X0075580Y0033452D02*
X0030145Y0033452D01*
X0030558Y0034451D02*
X0074582Y0034451D01*
X0073583Y0035449D02*
X0030750Y0035449D01*
X0030750Y0036448D02*
X0065364Y0036448D01*
X0064550Y0037446D02*
X0030734Y0037446D01*
X0030321Y0038445D02*
X0064178Y0038445D01*
X0069593Y0036448D02*
X0072585Y0036448D01*
X0130778Y0018475D02*
X0181331Y0018475D01*
X0181835Y0017476D02*
X0131669Y0017476D01*
X0132145Y0016478D02*
X0183152Y0016478D01*
X0185805Y0016478D02*
X0222334Y0016478D01*
X0221538Y0017476D02*
X0187121Y0017476D01*
X0187626Y0018475D02*
X0221178Y0018475D01*
X0227419Y0017476D02*
X0259979Y0017476D01*
X0259979Y0016478D02*
X0226623Y0016478D01*
X0227778Y0018475D02*
X0259979Y0018475D01*
X0259979Y0019473D02*
X0227778Y0019473D01*
X0227441Y0020472D02*
X0259979Y0020472D01*
X0259979Y0021470D02*
X0226675Y0021470D01*
X0226278Y0022469D02*
X0259979Y0022469D01*
X0259979Y0023467D02*
X0226278Y0023467D01*
X0226278Y0024466D02*
X0259979Y0024466D01*
X0259979Y0025464D02*
X0226278Y0025464D01*
X0226278Y0026463D02*
X0259979Y0026463D01*
X0259979Y0027461D02*
X0226278Y0027461D01*
X0226278Y0028460D02*
X0259979Y0028460D01*
X0259979Y0029458D02*
X0226278Y0029458D01*
X0226278Y0030457D02*
X0259979Y0030457D01*
X0259979Y0031455D02*
X0226278Y0031455D01*
X0226278Y0032454D02*
X0259979Y0032454D01*
X0259979Y0033452D02*
X0226278Y0033452D01*
X0226278Y0034451D02*
X0259979Y0034451D01*
X0259979Y0035449D02*
X0226278Y0035449D01*
X0226278Y0036448D02*
X0259979Y0036448D01*
X0259979Y0015479D02*
X0132278Y0015479D01*
X0132128Y0014481D02*
X0259979Y0014481D01*
X0259979Y0013482D02*
X0131627Y0013482D01*
X0130319Y0012484D02*
X0259979Y0012484D01*
X0259979Y0011485D02*
X0114174Y0011485D01*
X0113176Y0012484D02*
X0127637Y0012484D01*
X0126329Y0013482D02*
X0027935Y0013482D01*
X0028990Y0014481D02*
X0125829Y0014481D01*
X0115173Y0010487D02*
X0259979Y0010487D01*
X0259979Y0009488D02*
X0115278Y0009488D01*
X0115278Y0008490D02*
X0259979Y0008490D01*
X0259979Y0007491D02*
X0115278Y0007491D01*
X0114952Y0006493D02*
X0259979Y0006493D01*
X0107005Y0006493D02*
X0008978Y0006493D01*
X0008978Y0007491D02*
X0106678Y0007491D01*
D14*
X0105478Y0012500D03*
X0128978Y0015500D03*
X0153478Y0012500D03*
X0184478Y0019500D03*
X0169478Y0020500D03*
X0212978Y0020500D03*
X0224478Y0019000D03*
X0236978Y0008500D03*
X0143978Y0030500D03*
X0113978Y0030500D03*
X0067478Y0039000D03*
X0056978Y0046500D03*
X0176478Y0042500D03*
X0199478Y0036000D03*
X0103478Y0021000D03*
X0056978Y0007500D03*
M02*
