G75*
%MOIN*%
%OFA0B0*%
%FSLAX25Y25*%
%IPPOS*%
%LPD*%
%AMOC8*
5,1,8,0,0,1.08239X$1,22.5*
%
%ADD10C,0.00000*%
%ADD11C,0.01200*%
%ADD12C,0.01000*%
%ADD13C,0.00600*%
%ADD14C,0.00700*%
%ADD15C,0.00300*%
%ADD16C,0.00100*%
%ADD17C,0.00500*%
%ADD18C,0.00400*%
%ADD19C,0.00800*%
%ADD20C,0.00200*%
D10*
X0004478Y0001500D02*
X0004478Y0052511D01*
X0258478Y0052500D01*
X0258589Y0052411D01*
X0264479Y0046511D01*
X0264479Y0001500D01*
X0004478Y0001500D01*
X0022706Y0018839D02*
X0022708Y0018923D01*
X0022714Y0019006D01*
X0022724Y0019089D01*
X0022738Y0019172D01*
X0022755Y0019254D01*
X0022777Y0019335D01*
X0022802Y0019414D01*
X0022831Y0019493D01*
X0022864Y0019570D01*
X0022900Y0019645D01*
X0022940Y0019719D01*
X0022983Y0019791D01*
X0023030Y0019860D01*
X0023080Y0019927D01*
X0023133Y0019992D01*
X0023189Y0020054D01*
X0023247Y0020114D01*
X0023309Y0020171D01*
X0023373Y0020224D01*
X0023440Y0020275D01*
X0023509Y0020322D01*
X0023580Y0020367D01*
X0023653Y0020407D01*
X0023728Y0020444D01*
X0023805Y0020478D01*
X0023883Y0020508D01*
X0023962Y0020534D01*
X0024043Y0020557D01*
X0024125Y0020575D01*
X0024207Y0020590D01*
X0024290Y0020601D01*
X0024373Y0020608D01*
X0024457Y0020611D01*
X0024541Y0020610D01*
X0024624Y0020605D01*
X0024708Y0020596D01*
X0024790Y0020583D01*
X0024872Y0020567D01*
X0024953Y0020546D01*
X0025034Y0020522D01*
X0025112Y0020494D01*
X0025190Y0020462D01*
X0025266Y0020426D01*
X0025340Y0020387D01*
X0025412Y0020345D01*
X0025482Y0020299D01*
X0025550Y0020250D01*
X0025615Y0020198D01*
X0025678Y0020143D01*
X0025738Y0020085D01*
X0025796Y0020024D01*
X0025850Y0019960D01*
X0025902Y0019894D01*
X0025950Y0019826D01*
X0025995Y0019755D01*
X0026036Y0019682D01*
X0026075Y0019608D01*
X0026109Y0019532D01*
X0026140Y0019454D01*
X0026167Y0019375D01*
X0026191Y0019294D01*
X0026210Y0019213D01*
X0026226Y0019131D01*
X0026238Y0019048D01*
X0026246Y0018964D01*
X0026250Y0018881D01*
X0026250Y0018797D01*
X0026246Y0018714D01*
X0026238Y0018630D01*
X0026226Y0018547D01*
X0026210Y0018465D01*
X0026191Y0018384D01*
X0026167Y0018303D01*
X0026140Y0018224D01*
X0026109Y0018146D01*
X0026075Y0018070D01*
X0026036Y0017996D01*
X0025995Y0017923D01*
X0025950Y0017852D01*
X0025902Y0017784D01*
X0025850Y0017718D01*
X0025796Y0017654D01*
X0025738Y0017593D01*
X0025678Y0017535D01*
X0025615Y0017480D01*
X0025550Y0017428D01*
X0025482Y0017379D01*
X0025412Y0017333D01*
X0025340Y0017291D01*
X0025266Y0017252D01*
X0025190Y0017216D01*
X0025112Y0017184D01*
X0025034Y0017156D01*
X0024953Y0017132D01*
X0024872Y0017111D01*
X0024790Y0017095D01*
X0024708Y0017082D01*
X0024624Y0017073D01*
X0024541Y0017068D01*
X0024457Y0017067D01*
X0024373Y0017070D01*
X0024290Y0017077D01*
X0024207Y0017088D01*
X0024125Y0017103D01*
X0024043Y0017121D01*
X0023962Y0017144D01*
X0023883Y0017170D01*
X0023805Y0017200D01*
X0023728Y0017234D01*
X0023653Y0017271D01*
X0023580Y0017311D01*
X0023509Y0017356D01*
X0023440Y0017403D01*
X0023373Y0017454D01*
X0023309Y0017507D01*
X0023247Y0017564D01*
X0023189Y0017624D01*
X0023133Y0017686D01*
X0023080Y0017751D01*
X0023030Y0017818D01*
X0022983Y0017887D01*
X0022940Y0017959D01*
X0022900Y0018033D01*
X0022864Y0018108D01*
X0022831Y0018185D01*
X0022802Y0018264D01*
X0022777Y0018343D01*
X0022755Y0018424D01*
X0022738Y0018506D01*
X0022724Y0018589D01*
X0022714Y0018672D01*
X0022708Y0018755D01*
X0022706Y0018839D01*
X0022706Y0036161D02*
X0022708Y0036245D01*
X0022714Y0036328D01*
X0022724Y0036411D01*
X0022738Y0036494D01*
X0022755Y0036576D01*
X0022777Y0036657D01*
X0022802Y0036736D01*
X0022831Y0036815D01*
X0022864Y0036892D01*
X0022900Y0036967D01*
X0022940Y0037041D01*
X0022983Y0037113D01*
X0023030Y0037182D01*
X0023080Y0037249D01*
X0023133Y0037314D01*
X0023189Y0037376D01*
X0023247Y0037436D01*
X0023309Y0037493D01*
X0023373Y0037546D01*
X0023440Y0037597D01*
X0023509Y0037644D01*
X0023580Y0037689D01*
X0023653Y0037729D01*
X0023728Y0037766D01*
X0023805Y0037800D01*
X0023883Y0037830D01*
X0023962Y0037856D01*
X0024043Y0037879D01*
X0024125Y0037897D01*
X0024207Y0037912D01*
X0024290Y0037923D01*
X0024373Y0037930D01*
X0024457Y0037933D01*
X0024541Y0037932D01*
X0024624Y0037927D01*
X0024708Y0037918D01*
X0024790Y0037905D01*
X0024872Y0037889D01*
X0024953Y0037868D01*
X0025034Y0037844D01*
X0025112Y0037816D01*
X0025190Y0037784D01*
X0025266Y0037748D01*
X0025340Y0037709D01*
X0025412Y0037667D01*
X0025482Y0037621D01*
X0025550Y0037572D01*
X0025615Y0037520D01*
X0025678Y0037465D01*
X0025738Y0037407D01*
X0025796Y0037346D01*
X0025850Y0037282D01*
X0025902Y0037216D01*
X0025950Y0037148D01*
X0025995Y0037077D01*
X0026036Y0037004D01*
X0026075Y0036930D01*
X0026109Y0036854D01*
X0026140Y0036776D01*
X0026167Y0036697D01*
X0026191Y0036616D01*
X0026210Y0036535D01*
X0026226Y0036453D01*
X0026238Y0036370D01*
X0026246Y0036286D01*
X0026250Y0036203D01*
X0026250Y0036119D01*
X0026246Y0036036D01*
X0026238Y0035952D01*
X0026226Y0035869D01*
X0026210Y0035787D01*
X0026191Y0035706D01*
X0026167Y0035625D01*
X0026140Y0035546D01*
X0026109Y0035468D01*
X0026075Y0035392D01*
X0026036Y0035318D01*
X0025995Y0035245D01*
X0025950Y0035174D01*
X0025902Y0035106D01*
X0025850Y0035040D01*
X0025796Y0034976D01*
X0025738Y0034915D01*
X0025678Y0034857D01*
X0025615Y0034802D01*
X0025550Y0034750D01*
X0025482Y0034701D01*
X0025412Y0034655D01*
X0025340Y0034613D01*
X0025266Y0034574D01*
X0025190Y0034538D01*
X0025112Y0034506D01*
X0025034Y0034478D01*
X0024953Y0034454D01*
X0024872Y0034433D01*
X0024790Y0034417D01*
X0024708Y0034404D01*
X0024624Y0034395D01*
X0024541Y0034390D01*
X0024457Y0034389D01*
X0024373Y0034392D01*
X0024290Y0034399D01*
X0024207Y0034410D01*
X0024125Y0034425D01*
X0024043Y0034443D01*
X0023962Y0034466D01*
X0023883Y0034492D01*
X0023805Y0034522D01*
X0023728Y0034556D01*
X0023653Y0034593D01*
X0023580Y0034633D01*
X0023509Y0034678D01*
X0023440Y0034725D01*
X0023373Y0034776D01*
X0023309Y0034829D01*
X0023247Y0034886D01*
X0023189Y0034946D01*
X0023133Y0035008D01*
X0023080Y0035073D01*
X0023030Y0035140D01*
X0022983Y0035209D01*
X0022940Y0035281D01*
X0022900Y0035355D01*
X0022864Y0035430D01*
X0022831Y0035507D01*
X0022802Y0035586D01*
X0022777Y0035665D01*
X0022755Y0035746D01*
X0022738Y0035828D01*
X0022724Y0035911D01*
X0022714Y0035994D01*
X0022708Y0036077D01*
X0022706Y0036161D01*
D11*
X0114978Y0025000D02*
X0124478Y0015500D01*
X0156478Y0015500D01*
X0200978Y0015500D02*
X0230478Y0015500D01*
X0239978Y0025000D01*
X0244978Y0023000D02*
X0241478Y0019500D01*
X0248478Y0019500D01*
X0244978Y0023000D01*
X0244978Y0022000D02*
X0246978Y0020000D01*
X0243978Y0020000D01*
X0245478Y0021000D01*
X0244978Y0022000D02*
X0242978Y0020000D01*
X0253478Y0022500D02*
X0257478Y0022500D01*
X0255478Y0020500D01*
X0253978Y0022000D01*
X0255978Y0022000D01*
X0255478Y0021500D02*
X0255478Y0021000D01*
X0255478Y0019500D02*
X0258978Y0023000D01*
X0251978Y0023000D01*
X0255478Y0019500D01*
D12*
X0198270Y0009859D02*
X0194533Y0009859D01*
X0194533Y0015464D01*
X0192193Y0013596D02*
X0190324Y0015464D01*
X0188456Y0013596D01*
X0188456Y0009859D01*
X0184247Y0009859D02*
X0184247Y0015464D01*
X0182379Y0015464D02*
X0186115Y0015464D01*
X0180196Y0015464D02*
X0178327Y0015464D01*
X0179262Y0015464D02*
X0179262Y0009859D01*
X0180196Y0009859D02*
X0178327Y0009859D01*
X0175987Y0010793D02*
X0175987Y0012661D01*
X0174119Y0012661D01*
X0172250Y0010793D02*
X0172250Y0014530D01*
X0173184Y0015464D01*
X0175053Y0015464D01*
X0175987Y0014530D01*
X0170067Y0015464D02*
X0168199Y0015464D01*
X0169133Y0015464D02*
X0169133Y0009859D01*
X0168199Y0009859D02*
X0170067Y0009859D01*
X0172250Y0010793D02*
X0173184Y0009859D01*
X0175053Y0009859D01*
X0175987Y0010793D01*
X0165858Y0010793D02*
X0164924Y0009859D01*
X0162122Y0009859D01*
X0162122Y0015464D01*
X0164924Y0015464D01*
X0165858Y0014530D01*
X0165858Y0010793D01*
X0188456Y0012661D02*
X0192193Y0012661D01*
X0192193Y0013596D02*
X0192193Y0009859D01*
D13*
X0242657Y0009348D02*
X0242657Y0012684D01*
X0242657Y0011016D02*
X0247661Y0011016D01*
X0252674Y0011802D02*
X0253508Y0012636D01*
X0255176Y0012636D01*
X0256010Y0011802D01*
X0256010Y0009300D01*
X0257678Y0009300D02*
X0252674Y0009300D01*
X0252674Y0011802D01*
X0256010Y0010968D02*
X0257678Y0012636D01*
X0257678Y0014456D02*
X0252674Y0017793D01*
X0247661Y0017841D02*
X0242657Y0014504D01*
X0242657Y0017841D02*
X0247661Y0014504D01*
X0252674Y0014456D02*
X0257678Y0017793D01*
X0226678Y0022434D02*
X0222875Y0022434D01*
X0224143Y0021800D02*
X0224143Y0023702D01*
X0224143Y0024335D01*
X0225411Y0024335D02*
X0225411Y0021800D01*
X0226678Y0023702D02*
X0222875Y0023702D01*
X0206678Y0023702D02*
X0202875Y0023702D01*
X0204143Y0023702D02*
X0204143Y0024335D01*
X0205411Y0024335D02*
X0205411Y0021800D01*
X0204143Y0021800D02*
X0204143Y0023702D01*
X0202875Y0022434D02*
X0206678Y0022434D01*
X0197178Y0022434D02*
X0193375Y0022434D01*
X0194643Y0021800D02*
X0194643Y0023702D01*
X0194643Y0024335D01*
X0195911Y0024335D02*
X0195911Y0021800D01*
X0197178Y0023702D02*
X0193375Y0023702D01*
X0160678Y0023702D02*
X0156875Y0023702D01*
X0158143Y0023702D02*
X0158143Y0024335D01*
X0159411Y0024335D02*
X0159411Y0021800D01*
X0158143Y0021800D02*
X0158143Y0023702D01*
X0156875Y0022434D02*
X0160678Y0022434D01*
X0151178Y0022434D02*
X0147375Y0022434D01*
X0148643Y0021800D02*
X0148643Y0023702D01*
X0148643Y0024335D01*
X0149911Y0024335D02*
X0149911Y0021800D01*
X0151178Y0023702D02*
X0147375Y0023702D01*
X0141178Y0023702D02*
X0137375Y0023702D01*
X0138643Y0023702D02*
X0138643Y0024335D01*
X0139911Y0024335D02*
X0139911Y0021800D01*
X0138643Y0021800D02*
X0138643Y0023702D01*
X0137375Y0022434D02*
X0141178Y0022434D01*
X0111353Y0022117D02*
X0110519Y0021283D01*
X0107183Y0021283D01*
X0106349Y0022117D01*
X0106349Y0023785D01*
X0107183Y0024619D01*
X0108851Y0024619D02*
X0108851Y0022951D01*
X0110519Y0024619D02*
X0111353Y0023785D01*
X0111353Y0022117D01*
X0100896Y0021383D02*
X0095891Y0021383D01*
X0095891Y0023885D01*
X0096725Y0024719D01*
X0098394Y0024719D01*
X0099228Y0023885D01*
X0099228Y0021383D01*
X0099228Y0023051D02*
X0100896Y0024719D01*
X0106349Y0026439D02*
X0111353Y0029775D01*
X0106349Y0029775D01*
X0100896Y0029875D02*
X0100896Y0026539D01*
X0095891Y0026539D01*
X0095891Y0029875D01*
X0090896Y0029541D02*
X0090062Y0030375D01*
X0086725Y0030375D01*
X0085891Y0029541D01*
X0085891Y0027039D01*
X0090896Y0027039D01*
X0090896Y0029541D01*
X0098394Y0028207D02*
X0098394Y0026539D01*
X0090896Y0024385D02*
X0090062Y0025219D01*
X0089228Y0025219D01*
X0088394Y0024385D01*
X0088394Y0022717D01*
X0087559Y0021883D01*
X0086725Y0021883D01*
X0085891Y0022717D01*
X0085891Y0024385D01*
X0086725Y0025219D01*
X0090896Y0024385D02*
X0090896Y0022717D01*
X0090062Y0021883D01*
X0080896Y0022217D02*
X0080062Y0021383D01*
X0078394Y0022217D02*
X0077559Y0021383D01*
X0076725Y0021383D01*
X0075891Y0022217D01*
X0075891Y0023885D01*
X0076725Y0024719D01*
X0078394Y0023885D02*
X0079228Y0024719D01*
X0080062Y0024719D01*
X0080896Y0023885D01*
X0080896Y0022217D01*
X0078394Y0022217D02*
X0078394Y0023885D01*
X0068659Y0023838D02*
X0066297Y0023838D01*
X0060341Y0024081D02*
X0060341Y0021719D01*
X0055616Y0021719D02*
X0055616Y0024081D01*
X0066297Y0028562D02*
X0068659Y0028562D01*
X0068659Y0029738D02*
X0066297Y0029738D01*
X0075891Y0029041D02*
X0075891Y0027373D01*
X0076725Y0026539D01*
X0080062Y0026539D01*
X0080896Y0027373D01*
X0080896Y0029041D01*
X0080062Y0029875D01*
X0076725Y0029875D02*
X0075891Y0029041D01*
X0075891Y0031696D02*
X0080896Y0031696D01*
X0080896Y0035032D01*
X0085891Y0033864D02*
X0087559Y0035532D01*
X0090896Y0035532D01*
X0088394Y0035532D02*
X0088394Y0032196D01*
X0087559Y0032196D02*
X0085891Y0033864D01*
X0087559Y0032196D02*
X0090896Y0032196D01*
X0095891Y0031696D02*
X0095891Y0035032D01*
X0098394Y0033364D02*
X0098394Y0031696D01*
X0100896Y0031696D02*
X0095891Y0031696D01*
X0106349Y0031596D02*
X0106349Y0034098D01*
X0107183Y0034932D01*
X0110519Y0034932D01*
X0111353Y0034098D01*
X0111353Y0031596D01*
X0106349Y0031596D01*
X0106349Y0026439D02*
X0111353Y0026439D01*
X0110519Y0024619D02*
X0108851Y0024619D01*
X0100896Y0019563D02*
X0097559Y0019563D01*
X0095891Y0017894D01*
X0097559Y0016226D01*
X0100896Y0016226D01*
X0098394Y0016226D02*
X0098394Y0019563D01*
X0105978Y0011100D02*
X0108478Y0013600D01*
X0113478Y0013600D01*
X0115978Y0011100D01*
X0115978Y0006100D01*
X0113478Y0003600D01*
X0108478Y0003600D01*
X0105978Y0006100D01*
X0105978Y0011100D01*
X0119278Y0011700D02*
X0119278Y0005700D01*
X0119280Y0005640D01*
X0119285Y0005579D01*
X0119294Y0005520D01*
X0119307Y0005461D01*
X0119323Y0005402D01*
X0119343Y0005345D01*
X0119366Y0005290D01*
X0119393Y0005235D01*
X0119422Y0005183D01*
X0119455Y0005132D01*
X0119491Y0005083D01*
X0119529Y0005037D01*
X0119571Y0004993D01*
X0119615Y0004951D01*
X0119661Y0004913D01*
X0119710Y0004877D01*
X0119761Y0004844D01*
X0119813Y0004815D01*
X0119868Y0004788D01*
X0119923Y0004765D01*
X0119980Y0004745D01*
X0120039Y0004729D01*
X0120098Y0004716D01*
X0120157Y0004707D01*
X0120218Y0004702D01*
X0120278Y0004700D01*
X0137278Y0004700D01*
X0137338Y0004702D01*
X0137399Y0004707D01*
X0137458Y0004716D01*
X0137517Y0004729D01*
X0137576Y0004745D01*
X0137633Y0004765D01*
X0137688Y0004788D01*
X0137743Y0004815D01*
X0137795Y0004844D01*
X0137846Y0004877D01*
X0137895Y0004913D01*
X0137941Y0004951D01*
X0137985Y0004993D01*
X0138027Y0005037D01*
X0138065Y0005083D01*
X0138101Y0005132D01*
X0138134Y0005183D01*
X0138163Y0005235D01*
X0138190Y0005290D01*
X0138213Y0005345D01*
X0138233Y0005402D01*
X0138249Y0005461D01*
X0138262Y0005520D01*
X0138271Y0005579D01*
X0138276Y0005640D01*
X0138278Y0005700D01*
X0138278Y0011700D01*
X0138276Y0011760D01*
X0138271Y0011821D01*
X0138262Y0011880D01*
X0138249Y0011939D01*
X0138233Y0011998D01*
X0138213Y0012055D01*
X0138190Y0012110D01*
X0138163Y0012165D01*
X0138134Y0012217D01*
X0138101Y0012268D01*
X0138065Y0012317D01*
X0138027Y0012363D01*
X0137985Y0012407D01*
X0137941Y0012449D01*
X0137895Y0012487D01*
X0137846Y0012523D01*
X0137795Y0012556D01*
X0137743Y0012585D01*
X0137688Y0012612D01*
X0137633Y0012635D01*
X0137576Y0012655D01*
X0137517Y0012671D01*
X0137458Y0012684D01*
X0137399Y0012693D01*
X0137338Y0012698D01*
X0137278Y0012700D01*
X0120278Y0012700D01*
X0120218Y0012698D01*
X0120157Y0012693D01*
X0120098Y0012684D01*
X0120039Y0012671D01*
X0119980Y0012655D01*
X0119923Y0012635D01*
X0119868Y0012612D01*
X0119813Y0012585D01*
X0119761Y0012556D01*
X0119710Y0012523D01*
X0119661Y0012487D01*
X0119615Y0012449D01*
X0119571Y0012407D01*
X0119529Y0012363D01*
X0119491Y0012317D01*
X0119455Y0012268D01*
X0119422Y0012217D01*
X0119393Y0012165D01*
X0119366Y0012110D01*
X0119343Y0012055D01*
X0119323Y0011998D01*
X0119307Y0011939D01*
X0119294Y0011880D01*
X0119285Y0011821D01*
X0119280Y0011760D01*
X0119278Y0011700D01*
X0068659Y0034462D02*
X0066297Y0034462D01*
X0060341Y0034219D02*
X0060341Y0036581D01*
X0055616Y0036581D02*
X0055616Y0034219D01*
D14*
X0116324Y0033646D02*
X0116324Y0032011D01*
X0117142Y0031194D01*
X0120411Y0031194D02*
X0121228Y0032011D01*
X0121228Y0033646D01*
X0120411Y0034463D01*
X0119594Y0034463D01*
X0118776Y0033646D01*
X0118776Y0032828D01*
X0118776Y0033646D02*
X0117959Y0034463D01*
X0117142Y0034463D01*
X0116324Y0033646D01*
X0126324Y0033646D02*
X0126324Y0032011D01*
X0127142Y0031194D01*
X0127959Y0034463D02*
X0131228Y0031194D01*
X0131228Y0034463D01*
X0127959Y0034463D02*
X0127142Y0034463D01*
X0126324Y0033646D01*
X0136324Y0032828D02*
X0141228Y0032828D01*
X0137959Y0031194D02*
X0136324Y0032828D01*
X0141228Y0031194D02*
X0141228Y0034463D01*
X0146324Y0033646D02*
X0147142Y0034463D01*
X0150411Y0031194D01*
X0151228Y0032011D01*
X0151228Y0033646D01*
X0150411Y0034463D01*
X0147142Y0034463D01*
X0146324Y0033646D02*
X0146324Y0032011D01*
X0147142Y0031194D01*
X0150411Y0031194D01*
X0156324Y0032011D02*
X0157142Y0031194D01*
X0157959Y0031194D01*
X0158776Y0032011D01*
X0158776Y0034463D01*
X0157142Y0034463D02*
X0156324Y0033646D01*
X0156324Y0032011D01*
X0160411Y0031194D02*
X0161228Y0032011D01*
X0161228Y0033646D01*
X0160411Y0034463D01*
X0157142Y0034463D01*
X0166324Y0033646D02*
X0167142Y0034463D01*
X0167959Y0034463D01*
X0168776Y0033646D01*
X0168776Y0032011D01*
X0167959Y0031194D01*
X0167142Y0031194D01*
X0166324Y0032011D01*
X0166324Y0033646D01*
X0168776Y0033646D02*
X0169594Y0034463D01*
X0170411Y0034463D01*
X0171228Y0033646D01*
X0171228Y0032011D01*
X0170411Y0031194D01*
X0169594Y0031194D01*
X0168776Y0032011D01*
X0167142Y0029307D02*
X0170411Y0026037D01*
X0171228Y0026855D01*
X0171228Y0028489D01*
X0170411Y0029307D01*
X0167142Y0029307D01*
X0166324Y0028489D01*
X0166324Y0026855D01*
X0167142Y0026037D01*
X0170411Y0026037D01*
X0161228Y0026855D02*
X0161228Y0028489D01*
X0160411Y0029307D01*
X0157142Y0029307D01*
X0160411Y0026037D01*
X0161228Y0026855D01*
X0160411Y0026037D02*
X0157142Y0026037D01*
X0156324Y0026855D01*
X0156324Y0028489D01*
X0157142Y0029307D01*
X0151228Y0029307D02*
X0151228Y0026037D01*
X0147959Y0026037D02*
X0146324Y0027672D01*
X0151228Y0027672D01*
X0141228Y0027672D02*
X0136324Y0027672D01*
X0137959Y0026037D01*
X0141228Y0026037D02*
X0141228Y0029307D01*
X0131228Y0029307D02*
X0131228Y0026037D01*
X0127959Y0026037D02*
X0126324Y0027672D01*
X0131228Y0027672D01*
X0121228Y0027672D02*
X0116324Y0027672D01*
X0117959Y0026037D01*
X0121228Y0026037D02*
X0121228Y0029307D01*
X0182324Y0028489D02*
X0182324Y0026855D01*
X0183142Y0026037D01*
X0186411Y0026037D01*
X0183142Y0029307D01*
X0186411Y0029307D01*
X0187228Y0028489D01*
X0187228Y0026855D01*
X0186411Y0026037D01*
X0192324Y0026855D02*
X0193142Y0026037D01*
X0196411Y0026037D01*
X0193142Y0029307D01*
X0196411Y0029307D01*
X0197228Y0028489D01*
X0197228Y0026855D01*
X0196411Y0026037D01*
X0192324Y0026855D02*
X0192324Y0028489D01*
X0193142Y0029307D01*
X0194776Y0031194D02*
X0194776Y0033646D01*
X0195594Y0034463D01*
X0196411Y0034463D01*
X0197228Y0033646D01*
X0197228Y0032011D01*
X0196411Y0031194D01*
X0194776Y0031194D01*
X0193142Y0032828D01*
X0192324Y0034463D01*
X0186411Y0031194D02*
X0183142Y0034463D01*
X0182324Y0034463D01*
X0182324Y0031194D01*
X0186411Y0031194D02*
X0187228Y0031194D01*
X0183142Y0029307D02*
X0182324Y0028489D01*
X0202324Y0028489D02*
X0202324Y0026855D01*
X0203142Y0026037D01*
X0206411Y0026037D01*
X0203142Y0029307D01*
X0206411Y0029307D01*
X0207228Y0028489D01*
X0207228Y0026855D01*
X0206411Y0026037D01*
X0212324Y0026855D02*
X0212324Y0028489D01*
X0213142Y0029307D01*
X0216411Y0026037D01*
X0217228Y0026855D01*
X0217228Y0028489D01*
X0216411Y0029307D01*
X0213142Y0029307D01*
X0214776Y0031194D02*
X0214776Y0034463D01*
X0212324Y0033646D02*
X0214776Y0031194D01*
X0207228Y0032011D02*
X0206411Y0031194D01*
X0204776Y0031194D02*
X0203959Y0032828D01*
X0203959Y0033646D01*
X0204776Y0034463D01*
X0206411Y0034463D01*
X0207228Y0033646D01*
X0207228Y0032011D01*
X0204776Y0031194D02*
X0202324Y0031194D01*
X0202324Y0034463D01*
X0212324Y0033646D02*
X0217228Y0033646D01*
X0222324Y0033646D02*
X0223142Y0034463D01*
X0223959Y0034463D01*
X0224776Y0033646D01*
X0225594Y0034463D01*
X0226411Y0034463D01*
X0227228Y0033646D01*
X0227228Y0032011D01*
X0226411Y0031194D01*
X0223142Y0031194D02*
X0222324Y0032011D01*
X0222324Y0033646D01*
X0224776Y0033646D02*
X0224776Y0032828D01*
X0232324Y0032011D02*
X0233142Y0031194D01*
X0232324Y0032011D02*
X0232324Y0033646D01*
X0233142Y0034463D01*
X0233959Y0034463D01*
X0237228Y0031194D01*
X0237228Y0034463D01*
X0242324Y0032828D02*
X0247228Y0032828D01*
X0243959Y0031194D02*
X0242324Y0032828D01*
X0247228Y0031194D02*
X0247228Y0034463D01*
X0252324Y0033646D02*
X0253142Y0034463D01*
X0256411Y0031194D01*
X0257228Y0032011D01*
X0257228Y0033646D01*
X0256411Y0034463D01*
X0253142Y0034463D01*
X0252324Y0033646D02*
X0252324Y0032011D01*
X0253142Y0031194D01*
X0256411Y0031194D01*
X0256411Y0029307D02*
X0253142Y0029307D01*
X0256411Y0026037D01*
X0257228Y0026855D01*
X0257228Y0028489D01*
X0256411Y0029307D01*
X0253142Y0029307D02*
X0252324Y0028489D01*
X0252324Y0026855D01*
X0253142Y0026037D01*
X0256411Y0026037D01*
X0247228Y0026855D02*
X0247228Y0028489D01*
X0246411Y0029307D01*
X0243142Y0029307D01*
X0246411Y0026037D01*
X0247228Y0026855D01*
X0246411Y0026037D02*
X0243142Y0026037D01*
X0242324Y0026855D01*
X0242324Y0028489D01*
X0243142Y0029307D01*
X0237228Y0028489D02*
X0237228Y0026855D01*
X0236411Y0026037D01*
X0233142Y0029307D01*
X0236411Y0029307D01*
X0237228Y0028489D01*
X0233142Y0029307D02*
X0232324Y0028489D01*
X0232324Y0026855D01*
X0233142Y0026037D01*
X0236411Y0026037D01*
X0227228Y0026855D02*
X0226411Y0026037D01*
X0223142Y0029307D01*
X0226411Y0029307D01*
X0227228Y0028489D01*
X0227228Y0026855D01*
X0226411Y0026037D02*
X0223142Y0026037D01*
X0222324Y0026855D01*
X0222324Y0028489D01*
X0223142Y0029307D01*
X0213142Y0026037D02*
X0212324Y0026855D01*
X0213142Y0026037D02*
X0216411Y0026037D01*
X0203142Y0029307D02*
X0202324Y0028489D01*
D15*
X0198832Y0048649D02*
X0198481Y0048649D01*
X0198832Y0048649D02*
X0199182Y0049000D01*
X0199182Y0050751D01*
X0199991Y0050401D02*
X0199991Y0049700D01*
X0200341Y0049350D01*
X0201392Y0049350D01*
X0202200Y0049700D02*
X0202551Y0049350D01*
X0203251Y0049350D01*
X0203602Y0049700D01*
X0203602Y0050401D01*
X0203251Y0050751D01*
X0202551Y0050751D01*
X0202200Y0050401D01*
X0202200Y0049700D01*
X0201392Y0050751D02*
X0200341Y0050751D01*
X0199991Y0050401D01*
X0198131Y0049350D02*
X0197781Y0049700D01*
X0197781Y0050751D01*
X0196990Y0050751D02*
X0196640Y0050751D01*
X0195939Y0050051D01*
X0195939Y0050751D02*
X0195939Y0049350D01*
X0194816Y0049350D02*
X0194816Y0051101D01*
X0195166Y0051452D01*
X0193657Y0051452D02*
X0192256Y0049350D01*
X0190046Y0049350D02*
X0191447Y0051452D01*
X0189291Y0050751D02*
X0189291Y0050401D01*
X0188941Y0050401D01*
X0188941Y0050751D01*
X0189291Y0050751D01*
X0189291Y0049700D02*
X0189291Y0049350D01*
X0188941Y0049350D01*
X0188941Y0049700D01*
X0189291Y0049700D01*
X0188132Y0049700D02*
X0187782Y0049350D01*
X0186731Y0049350D01*
X0186731Y0048649D02*
X0186731Y0050751D01*
X0187782Y0050751D01*
X0188132Y0050401D01*
X0188132Y0049700D01*
X0185959Y0049350D02*
X0185608Y0049700D01*
X0185608Y0051101D01*
X0185258Y0050751D02*
X0185959Y0050751D01*
X0184485Y0050751D02*
X0183785Y0050751D01*
X0184135Y0051101D02*
X0184135Y0049700D01*
X0184485Y0049350D01*
X0182976Y0049350D02*
X0182976Y0050401D01*
X0182626Y0050751D01*
X0181925Y0050751D01*
X0181575Y0050401D01*
X0181575Y0051452D02*
X0181575Y0049350D01*
X0178628Y0049350D02*
X0178628Y0051452D01*
X0176168Y0051452D02*
X0176168Y0049350D01*
X0175468Y0049350D02*
X0176869Y0049350D01*
X0174695Y0049350D02*
X0173995Y0049350D01*
X0174345Y0049350D02*
X0174345Y0051452D01*
X0173995Y0051452D02*
X0174695Y0051452D01*
X0175468Y0050751D02*
X0176168Y0051452D01*
X0172485Y0051452D02*
X0171785Y0050751D01*
X0170976Y0050051D02*
X0170976Y0051452D01*
X0169575Y0051452D02*
X0169575Y0050051D01*
X0170275Y0049350D01*
X0170976Y0050051D01*
X0171785Y0049350D02*
X0173186Y0049350D01*
X0172485Y0049350D02*
X0172485Y0051452D01*
X0166628Y0051452D02*
X0166628Y0049350D01*
X0164452Y0050751D02*
X0163752Y0050051D01*
X0163752Y0050751D02*
X0163752Y0049350D01*
X0162943Y0050051D02*
X0161542Y0050051D01*
X0161542Y0050401D02*
X0161542Y0049700D01*
X0161892Y0049350D01*
X0162593Y0049350D01*
X0162943Y0050051D02*
X0162943Y0050401D01*
X0162593Y0050751D01*
X0161892Y0050751D01*
X0161542Y0050401D01*
X0160769Y0050751D02*
X0160069Y0050751D01*
X0160419Y0051101D02*
X0160419Y0049700D01*
X0160769Y0049350D01*
X0159260Y0049700D02*
X0158910Y0049350D01*
X0157859Y0049350D01*
X0157859Y0048649D02*
X0157859Y0050751D01*
X0158910Y0050751D01*
X0159260Y0050401D01*
X0159260Y0049700D01*
X0157050Y0049350D02*
X0155999Y0049350D01*
X0155649Y0049700D01*
X0155999Y0050051D01*
X0157050Y0050051D01*
X0157050Y0050401D02*
X0156700Y0050751D01*
X0155999Y0050751D01*
X0157050Y0050401D02*
X0157050Y0049350D01*
X0154840Y0049350D02*
X0153789Y0049350D01*
X0153439Y0049700D01*
X0153439Y0050401D01*
X0153789Y0050751D01*
X0154840Y0050751D01*
X0152630Y0050401D02*
X0152630Y0049350D01*
X0151579Y0049350D01*
X0151229Y0049700D01*
X0151579Y0050051D01*
X0152630Y0050051D01*
X0152630Y0050401D02*
X0152280Y0050751D01*
X0151579Y0050751D01*
X0150421Y0050751D02*
X0150070Y0050401D01*
X0149019Y0050401D01*
X0148211Y0050051D02*
X0148211Y0049700D01*
X0147860Y0049350D01*
X0147160Y0049350D01*
X0146809Y0049700D01*
X0147160Y0050401D02*
X0147860Y0050401D01*
X0148211Y0050051D01*
X0149019Y0049350D02*
X0150070Y0049350D01*
X0150421Y0049700D01*
X0150421Y0050051D01*
X0150070Y0050401D01*
X0150421Y0050751D02*
X0150421Y0051101D01*
X0150070Y0051452D01*
X0149019Y0051452D01*
X0149019Y0049350D01*
X0147160Y0050401D02*
X0146809Y0050751D01*
X0146809Y0051101D01*
X0147160Y0051452D01*
X0147860Y0051452D01*
X0148211Y0051101D01*
X0146001Y0051452D02*
X0146001Y0049700D01*
X0145650Y0049350D01*
X0144950Y0049350D01*
X0144600Y0049700D01*
X0144600Y0051452D01*
X0143809Y0050751D02*
X0143459Y0050751D01*
X0142758Y0050051D01*
X0142758Y0050751D02*
X0142758Y0049350D01*
X0141949Y0049700D02*
X0141599Y0049350D01*
X0140898Y0049350D01*
X0140548Y0049700D01*
X0140548Y0050401D01*
X0140898Y0050751D01*
X0141599Y0050751D01*
X0141949Y0050401D01*
X0141949Y0049700D01*
X0139739Y0049700D02*
X0139389Y0049350D01*
X0138689Y0049350D01*
X0138338Y0049700D01*
X0138338Y0050401D01*
X0138689Y0050751D01*
X0139389Y0050751D01*
X0139739Y0050401D01*
X0139739Y0049700D01*
X0137530Y0049700D02*
X0137179Y0049350D01*
X0136128Y0049350D01*
X0136128Y0048649D02*
X0136128Y0050751D01*
X0137179Y0050751D01*
X0137530Y0050401D01*
X0137530Y0049700D01*
X0133507Y0049350D02*
X0133507Y0051452D01*
X0130488Y0050401D02*
X0130138Y0050751D01*
X0129087Y0050751D01*
X0128279Y0050401D02*
X0128279Y0049350D01*
X0127228Y0049350D01*
X0126877Y0049700D01*
X0127228Y0050051D01*
X0128279Y0050051D01*
X0128279Y0050401D02*
X0127928Y0050751D01*
X0127228Y0050751D01*
X0126069Y0049350D02*
X0124668Y0049350D01*
X0124668Y0051452D01*
X0121649Y0050751D02*
X0120598Y0050751D01*
X0120248Y0050401D01*
X0120598Y0050051D01*
X0121299Y0050051D01*
X0121649Y0049700D01*
X0121299Y0049350D01*
X0120248Y0049350D01*
X0119107Y0050751D02*
X0118406Y0050051D01*
X0118406Y0050751D02*
X0118406Y0049350D01*
X0117597Y0049700D02*
X0117247Y0049350D01*
X0116547Y0049350D01*
X0116196Y0049700D01*
X0116196Y0050401D01*
X0116547Y0050751D01*
X0117247Y0050751D01*
X0117597Y0050401D01*
X0117597Y0049700D01*
X0119107Y0050751D02*
X0119457Y0050751D01*
X0115424Y0050751D02*
X0114723Y0050751D01*
X0115073Y0051101D02*
X0115073Y0049700D01*
X0115424Y0049350D01*
X0113950Y0049350D02*
X0113250Y0049350D01*
X0113600Y0049350D02*
X0113600Y0050751D01*
X0113250Y0050751D01*
X0112441Y0050751D02*
X0111390Y0050751D01*
X0111040Y0050401D01*
X0111040Y0049700D01*
X0111390Y0049350D01*
X0112441Y0049350D01*
X0110231Y0049350D02*
X0109180Y0049350D01*
X0108830Y0049700D01*
X0109180Y0050051D01*
X0110231Y0050051D01*
X0110231Y0050401D02*
X0110231Y0049350D01*
X0108021Y0049700D02*
X0107671Y0049350D01*
X0106620Y0049350D01*
X0106620Y0048649D02*
X0106620Y0050751D01*
X0107671Y0050751D01*
X0108021Y0050401D01*
X0108021Y0049700D01*
X0109180Y0050751D02*
X0109881Y0050751D01*
X0110231Y0050401D01*
X0113600Y0051452D02*
X0113600Y0051802D01*
X0105811Y0050401D02*
X0105811Y0049350D01*
X0104761Y0049350D01*
X0104410Y0049700D01*
X0104761Y0050051D01*
X0105811Y0050051D01*
X0105811Y0050401D02*
X0105461Y0050751D01*
X0104761Y0050751D01*
X0103602Y0051101D02*
X0103251Y0051452D01*
X0102551Y0051452D01*
X0102200Y0051101D01*
X0102200Y0049700D01*
X0102551Y0049350D01*
X0103251Y0049350D01*
X0103602Y0049700D01*
X0099182Y0049350D02*
X0098131Y0049350D01*
X0097781Y0049700D01*
X0097781Y0050401D01*
X0098131Y0050751D01*
X0099182Y0050751D01*
X0099182Y0049000D01*
X0098832Y0048649D01*
X0098481Y0048649D01*
X0096972Y0049350D02*
X0096972Y0050401D01*
X0096622Y0050751D01*
X0095571Y0050751D01*
X0095571Y0049350D01*
X0094798Y0049350D02*
X0094098Y0049350D01*
X0094448Y0049350D02*
X0094448Y0050751D01*
X0094098Y0050751D01*
X0093289Y0050751D02*
X0092238Y0050751D01*
X0091888Y0050401D01*
X0091888Y0049700D01*
X0092238Y0049350D01*
X0093289Y0049350D01*
X0093289Y0051452D01*
X0094448Y0051452D02*
X0094448Y0051802D01*
X0091079Y0050401D02*
X0090729Y0050751D01*
X0090028Y0050751D01*
X0089678Y0050401D01*
X0089678Y0049700D01*
X0090028Y0049350D01*
X0090729Y0049350D01*
X0091079Y0049700D01*
X0091079Y0050401D01*
X0088905Y0049350D02*
X0088204Y0049350D01*
X0088555Y0049350D02*
X0088555Y0051452D01*
X0088204Y0051452D01*
X0087396Y0050401D02*
X0087396Y0049700D01*
X0087046Y0049350D01*
X0085995Y0049350D01*
X0085995Y0048649D02*
X0085995Y0050751D01*
X0087046Y0050751D01*
X0087396Y0050401D01*
X0085186Y0050751D02*
X0083785Y0049350D01*
X0082976Y0049350D02*
X0081575Y0049350D01*
X0081575Y0051452D01*
X0082976Y0051452D01*
X0083785Y0050751D02*
X0085186Y0049350D01*
X0082275Y0050401D02*
X0081575Y0050401D01*
X0078628Y0051452D02*
X0078628Y0049350D01*
X0129087Y0049350D02*
X0130138Y0049350D01*
X0130488Y0049700D01*
X0130488Y0050401D01*
X0129087Y0051452D02*
X0129087Y0049350D01*
X0154840Y0049350D02*
X0154840Y0051452D01*
X0164452Y0050751D02*
X0164803Y0050751D01*
X0194466Y0050401D02*
X0195166Y0050401D01*
X0198131Y0049350D02*
X0199182Y0049350D01*
X0204410Y0049350D02*
X0204761Y0049350D01*
X0204761Y0049700D01*
X0204410Y0049700D01*
X0204410Y0049350D01*
X0205515Y0049700D02*
X0205866Y0049350D01*
X0206916Y0049350D01*
X0206916Y0049000D02*
X0206916Y0050751D01*
X0205866Y0050751D01*
X0205515Y0050401D01*
X0205515Y0049700D01*
X0207725Y0049350D02*
X0208426Y0049350D01*
X0208075Y0049350D02*
X0208075Y0050751D01*
X0207725Y0050751D01*
X0209198Y0050751D02*
X0209899Y0050751D01*
X0209549Y0051101D02*
X0209549Y0049700D01*
X0209899Y0049350D01*
X0210672Y0049350D02*
X0210672Y0051452D01*
X0208075Y0051452D02*
X0208075Y0051802D01*
X0210672Y0050401D02*
X0211022Y0050751D01*
X0211722Y0050751D01*
X0212073Y0050401D01*
X0212073Y0049350D01*
X0212881Y0049700D02*
X0213232Y0049350D01*
X0214283Y0049350D01*
X0214283Y0050751D01*
X0215091Y0050751D02*
X0216142Y0050751D01*
X0216493Y0050401D01*
X0216493Y0049700D01*
X0216142Y0049350D01*
X0215091Y0049350D01*
X0215091Y0051452D01*
X0212881Y0050751D02*
X0212881Y0049700D01*
X0217301Y0049700D02*
X0217301Y0049350D01*
X0217652Y0049350D01*
X0217652Y0049700D01*
X0217301Y0049700D01*
X0218406Y0049350D02*
X0219107Y0049350D01*
X0218756Y0049350D02*
X0218756Y0050751D01*
X0218406Y0050751D01*
X0219879Y0050401D02*
X0219879Y0049700D01*
X0220230Y0049350D01*
X0220930Y0049350D01*
X0221281Y0049700D01*
X0221281Y0050401D01*
X0220930Y0050751D01*
X0220230Y0050751D01*
X0219879Y0050401D01*
X0218756Y0051452D02*
X0218756Y0051802D01*
X0222089Y0049350D02*
X0223490Y0051452D01*
X0224299Y0050751D02*
X0225350Y0050751D01*
X0225700Y0050401D01*
X0225700Y0049700D01*
X0225350Y0049350D01*
X0224299Y0049350D01*
X0224299Y0048649D02*
X0224299Y0050751D01*
X0226509Y0050401D02*
X0226509Y0049700D01*
X0226859Y0049350D01*
X0227560Y0049350D01*
X0227910Y0049700D01*
X0227910Y0050401D01*
X0227560Y0050751D01*
X0226859Y0050751D01*
X0226509Y0050401D01*
X0228719Y0050401D02*
X0228719Y0049700D01*
X0229069Y0049350D01*
X0229770Y0049350D01*
X0230120Y0049700D01*
X0230120Y0050401D01*
X0229770Y0050751D01*
X0229069Y0050751D01*
X0228719Y0050401D01*
X0230929Y0050751D02*
X0230929Y0049350D01*
X0230929Y0050051D02*
X0231629Y0050751D01*
X0231980Y0050751D01*
X0232770Y0051452D02*
X0232770Y0049700D01*
X0233121Y0049350D01*
X0233821Y0049350D01*
X0234172Y0049700D01*
X0234172Y0051452D01*
X0234980Y0051101D02*
X0235331Y0051452D01*
X0236031Y0051452D01*
X0236381Y0051101D01*
X0236031Y0050401D02*
X0236381Y0050051D01*
X0236381Y0049700D01*
X0236031Y0049350D01*
X0235331Y0049350D01*
X0234980Y0049700D01*
X0235331Y0050401D02*
X0236031Y0050401D01*
X0235331Y0050401D02*
X0234980Y0050751D01*
X0234980Y0051101D01*
X0237190Y0051452D02*
X0238241Y0051452D01*
X0238591Y0051101D01*
X0238591Y0050751D01*
X0238241Y0050401D01*
X0237190Y0050401D01*
X0238241Y0050401D02*
X0238591Y0050051D01*
X0238591Y0049700D01*
X0238241Y0049350D01*
X0237190Y0049350D01*
X0237190Y0051452D01*
X0239750Y0050751D02*
X0240451Y0050751D01*
X0240801Y0050401D01*
X0240801Y0049350D01*
X0239750Y0049350D01*
X0239400Y0049700D01*
X0239750Y0050051D01*
X0240801Y0050051D01*
X0241610Y0049700D02*
X0241610Y0050401D01*
X0241960Y0050751D01*
X0243011Y0050751D01*
X0244170Y0050751D02*
X0244871Y0050751D01*
X0245221Y0050401D01*
X0245221Y0049350D01*
X0244170Y0049350D01*
X0243820Y0049700D01*
X0244170Y0050051D01*
X0245221Y0050051D01*
X0246030Y0050751D02*
X0247081Y0050751D01*
X0247431Y0050401D01*
X0247431Y0049700D01*
X0247081Y0049350D01*
X0246030Y0049350D01*
X0246030Y0048649D02*
X0246030Y0050751D01*
X0248240Y0050751D02*
X0248940Y0050751D01*
X0248590Y0051101D02*
X0248590Y0049700D01*
X0248940Y0049350D01*
X0249713Y0049700D02*
X0249713Y0050401D01*
X0250063Y0050751D01*
X0250764Y0050751D01*
X0251114Y0050401D01*
X0251114Y0050051D01*
X0249713Y0050051D01*
X0249713Y0049700D02*
X0250063Y0049350D01*
X0250764Y0049350D01*
X0251923Y0049350D02*
X0251923Y0050751D01*
X0252623Y0050751D02*
X0252974Y0050751D01*
X0252623Y0050751D02*
X0251923Y0050051D01*
X0255974Y0049350D02*
X0255974Y0051452D01*
X0243011Y0051452D02*
X0243011Y0049350D01*
X0241960Y0049350D01*
X0241610Y0049700D01*
X0206916Y0049000D02*
X0206566Y0048649D01*
X0206216Y0048649D01*
D16*
X0068502Y0036651D02*
X0068502Y0036401D01*
X0068252Y0036151D01*
X0068502Y0035900D01*
X0068502Y0035650D01*
X0068252Y0035400D01*
X0067752Y0035400D01*
X0067502Y0035650D01*
X0067029Y0035400D02*
X0066529Y0035900D01*
X0066779Y0035900D02*
X0066028Y0035900D01*
X0066028Y0035400D02*
X0066028Y0036901D01*
X0066779Y0036901D01*
X0067029Y0036651D01*
X0067029Y0036151D01*
X0066779Y0035900D01*
X0067502Y0036651D02*
X0067752Y0036901D01*
X0068252Y0036901D01*
X0068502Y0036651D01*
X0068252Y0036151D02*
X0068002Y0036151D01*
X0047774Y0039720D02*
X0046773Y0039720D01*
X0047524Y0040470D01*
X0047524Y0038969D01*
X0046301Y0039219D02*
X0046301Y0040220D01*
X0046051Y0040470D01*
X0045300Y0040470D01*
X0045300Y0038969D01*
X0046051Y0038969D01*
X0046301Y0039219D01*
X0066028Y0023001D02*
X0066779Y0023001D01*
X0067029Y0022751D01*
X0067029Y0022251D01*
X0066779Y0022000D01*
X0066028Y0022000D01*
X0066028Y0021500D02*
X0066028Y0023001D01*
X0067502Y0022251D02*
X0068502Y0022251D01*
X0068252Y0023001D02*
X0067502Y0022251D01*
X0067029Y0021500D02*
X0066529Y0022000D01*
X0068252Y0021500D02*
X0068252Y0023001D01*
X0064002Y0020451D02*
X0063752Y0020701D01*
X0063252Y0020701D01*
X0063002Y0020451D01*
X0062529Y0020451D02*
X0062529Y0019951D01*
X0062279Y0019700D01*
X0061528Y0019700D01*
X0061528Y0019200D02*
X0061528Y0020701D01*
X0062279Y0020701D01*
X0062529Y0020451D01*
X0062029Y0019700D02*
X0062529Y0019200D01*
X0063002Y0019200D02*
X0064002Y0020201D01*
X0064002Y0020451D01*
X0064002Y0019200D02*
X0063002Y0019200D01*
X0046774Y0019519D02*
X0046524Y0019269D01*
X0046023Y0019269D01*
X0045773Y0019519D01*
X0045301Y0019519D02*
X0045301Y0020520D01*
X0045051Y0020770D01*
X0044300Y0020770D01*
X0044300Y0019269D01*
X0045051Y0019269D01*
X0045301Y0019519D01*
X0046274Y0020020D02*
X0046524Y0020020D01*
X0046774Y0019769D01*
X0046774Y0019519D01*
X0046524Y0020020D02*
X0046774Y0020270D01*
X0046774Y0020520D01*
X0046524Y0020770D01*
X0046023Y0020770D01*
X0045773Y0020520D01*
D17*
X0037470Y0019035D02*
X0037470Y0015098D01*
X0028219Y0012343D02*
X0018770Y0012343D01*
X0006565Y0012343D02*
X0003809Y0012343D01*
X0037470Y0035965D02*
X0037470Y0039902D01*
X0028219Y0042657D02*
X0018770Y0042657D01*
X0006565Y0042657D02*
X0003809Y0042657D01*
X0041480Y0044154D02*
X0042231Y0043404D01*
X0043732Y0043404D01*
X0044483Y0044154D01*
X0044483Y0047907D01*
X0046084Y0047157D02*
X0046084Y0046406D01*
X0046835Y0045655D01*
X0048336Y0045655D01*
X0049087Y0044905D01*
X0049087Y0044154D01*
X0048336Y0043404D01*
X0046835Y0043404D01*
X0046084Y0044154D01*
X0041480Y0044154D02*
X0041480Y0047907D01*
X0046084Y0047157D02*
X0046835Y0047907D01*
X0048336Y0047907D01*
X0049087Y0047157D01*
X0050688Y0047907D02*
X0052940Y0047907D01*
X0053691Y0047157D01*
X0053691Y0046406D01*
X0052940Y0045655D01*
X0050688Y0045655D01*
X0052940Y0045655D02*
X0053691Y0044905D01*
X0053691Y0044154D01*
X0052940Y0043404D01*
X0050688Y0043404D01*
X0050688Y0047907D01*
X0073478Y0047500D02*
X0173478Y0047500D01*
X0173478Y0037500D01*
X0073478Y0037500D01*
X0073478Y0047500D01*
X0179478Y0047500D02*
X0179478Y0037500D01*
X0259478Y0037500D01*
X0259478Y0047500D01*
X0179478Y0047500D01*
D18*
X0045026Y0037976D02*
X0045026Y0034907D01*
X0041957Y0034907D02*
X0040422Y0036442D01*
X0045026Y0036442D01*
D19*
X0073152Y0016890D02*
X0094805Y0016890D01*
X0094867Y0016888D01*
X0094928Y0016882D01*
X0094989Y0016873D01*
X0095050Y0016859D01*
X0095109Y0016842D01*
X0095167Y0016821D01*
X0095224Y0016796D01*
X0095279Y0016768D01*
X0095332Y0016737D01*
X0095383Y0016702D01*
X0095432Y0016664D01*
X0095479Y0016623D01*
X0095522Y0016580D01*
X0095563Y0016533D01*
X0095601Y0016484D01*
X0095636Y0016433D01*
X0095667Y0016380D01*
X0095695Y0016325D01*
X0095720Y0016268D01*
X0095741Y0016210D01*
X0095758Y0016151D01*
X0095772Y0016090D01*
X0095781Y0016029D01*
X0095787Y0015968D01*
X0095789Y0015906D01*
X0095789Y0014331D01*
X0089884Y0012953D02*
X0089884Y0007047D01*
X0078073Y0007047D01*
X0078073Y0012953D01*
X0089884Y0012953D01*
X0073152Y0016890D02*
X0073090Y0016888D01*
X0073029Y0016882D01*
X0072968Y0016873D01*
X0072907Y0016859D01*
X0072848Y0016842D01*
X0072790Y0016821D01*
X0072733Y0016796D01*
X0072678Y0016768D01*
X0072625Y0016737D01*
X0072574Y0016702D01*
X0072525Y0016664D01*
X0072478Y0016623D01*
X0072435Y0016580D01*
X0072394Y0016533D01*
X0072356Y0016484D01*
X0072321Y0016433D01*
X0072290Y0016380D01*
X0072262Y0016325D01*
X0072237Y0016268D01*
X0072216Y0016210D01*
X0072199Y0016151D01*
X0072185Y0016090D01*
X0072176Y0016029D01*
X0072170Y0015968D01*
X0072168Y0015906D01*
X0072167Y0015906D02*
X0072167Y0014331D01*
X0072167Y0005669D02*
X0072167Y0004094D01*
X0072168Y0004094D02*
X0072170Y0004032D01*
X0072176Y0003971D01*
X0072185Y0003910D01*
X0072199Y0003849D01*
X0072216Y0003790D01*
X0072237Y0003732D01*
X0072262Y0003675D01*
X0072290Y0003620D01*
X0072321Y0003567D01*
X0072356Y0003516D01*
X0072394Y0003467D01*
X0072435Y0003420D01*
X0072478Y0003377D01*
X0072525Y0003336D01*
X0072574Y0003298D01*
X0072625Y0003263D01*
X0072678Y0003232D01*
X0072733Y0003204D01*
X0072790Y0003179D01*
X0072848Y0003158D01*
X0072907Y0003141D01*
X0072968Y0003127D01*
X0073029Y0003118D01*
X0073090Y0003112D01*
X0073152Y0003110D01*
X0094805Y0003110D01*
X0094867Y0003112D01*
X0094928Y0003118D01*
X0094989Y0003127D01*
X0095050Y0003141D01*
X0095109Y0003158D01*
X0095167Y0003179D01*
X0095224Y0003204D01*
X0095279Y0003232D01*
X0095332Y0003263D01*
X0095383Y0003298D01*
X0095432Y0003336D01*
X0095479Y0003377D01*
X0095522Y0003420D01*
X0095563Y0003467D01*
X0095601Y0003516D01*
X0095636Y0003567D01*
X0095667Y0003620D01*
X0095695Y0003675D01*
X0095720Y0003732D01*
X0095741Y0003790D01*
X0095758Y0003849D01*
X0095772Y0003910D01*
X0095781Y0003971D01*
X0095787Y0004032D01*
X0095789Y0004094D01*
X0095789Y0005669D01*
D20*
X0087131Y0017974D02*
X0087131Y0020176D01*
X0086397Y0020176D02*
X0087865Y0020176D01*
X0085655Y0019809D02*
X0085288Y0020176D01*
X0084554Y0020176D01*
X0084187Y0019809D01*
X0084187Y0018341D01*
X0084554Y0017974D01*
X0085288Y0017974D01*
X0085655Y0018341D01*
X0085655Y0019809D01*
X0083445Y0019809D02*
X0083078Y0020176D01*
X0082344Y0020176D01*
X0081977Y0019809D01*
X0081977Y0018341D01*
X0082344Y0017974D01*
X0083078Y0017974D01*
X0083445Y0018341D01*
X0083445Y0019809D01*
X0081235Y0019809D02*
X0080868Y0020176D01*
X0079767Y0020176D01*
X0079767Y0017974D01*
X0080868Y0017974D01*
X0081235Y0018341D01*
X0081235Y0018708D01*
X0080868Y0019075D01*
X0079767Y0019075D01*
X0080868Y0019075D02*
X0081235Y0019442D01*
X0081235Y0019809D01*
M02*
